<svg id="alien" xmlns="http://www.w3.org/2000/svg" viewBox="0 0 238.68 381.17"><defs><style>.alienQueue-1{fill:#e7e2de;}.alienQueue-2{fill:#2a2f42;}.alienQueue-3{fill:#e7e0da;}.alienQueue-4{fill:#ccc0b0;}.alienQueue-5{fill:#dad1c5;}.alienQueue-6{fill:#b6aca3;}.alienQueue-7{fill:#d5ccc5;}.alienQueue-8{fill:#cac1ba;}.alienQueue-9{fill:#7f7f7f;}.alienQueue-10{fill:#f39200;}.alienQueue-11{isolation:isolate;font-size:51.76px;font-family:MyriadPro-Regular, Myriad Pro;}</style></defs><g id="alien-body"><path class="alienQueue-1" d="M167.8,216.6V135.3c.9,2.3,3.9,9.1,8.1,9.1s7.6-7,8.8-9.9v82.2a8.51,8.51,0,1,1-17,.6,2,2,0,0,0,.1-.7Z" transform="translate(-0.32 -5.48)"/><path class="alienQueue-1" d="M220.4,69.7a27.85,27.85,0,0,1-5.8,21.7,2.65,2.65,0,0,1-.5.6,36.48,36.48,0,0,1-9.7,8.2c-.1,0-.1.1-.2.1l-.1.1c-.1.1-.1.4-.2.9a2.54,2.54,0,0,1-.2.7c-1.5,5.4-7.2,22.9-17.5,31.2l-.7.6-.5.4-.1.1h0a18.36,18.36,0,0,1-10.5,3.5,10.26,10.26,0,0,1-6.4-2.7h0c-.5-.4-.9-.8-1.4-1.2a44.54,44.54,0,0,1-5.3-6.2c-.1-.1-.2-.3-.3-.4a92.18,92.18,0,0,1-6.5-10.9,8,8,0,0,1-.8-1.6,147.54,147.54,0,0,1-6.3-14.5,39.33,39.33,0,0,1-9.7-9.4V91a31.15,31.15,0,0,1-6.5-18S117.1,12.6,174.7,8.8C174.5,8.9,229.2,7.4,220.4,69.7Z" transform="translate(-0.32 -5.48)"/><ellipse class="alienQueue-2" cx="152.83" cy="80.42" rx="13.1" ry="20.1" transform="translate(-8.67 136.94) rotate(-48.79)"/><ellipse class="alienQueue-2" cx="200.03" cy="80.38" rx="20.1" ry="13.1" transform="translate(-3.73 146.21) rotate(-41.21)"/><ellipse class="alienQueue-3" cx="148.11" cy="70.5" rx="1.8" ry="3.6" transform="translate(-10.08 109.56) rotate(-41.21)"/><ellipse class="alienQueue-3" cx="206.03" cy="69.73" rx="3.6" ry="1.8" transform="translate(17.52 173.31) rotate(-48.79)"/><path class="alienQueue-1" d="M200.2,260.8l-7.9-2c-6.4-1.6-11.9,9.6-12.1,22.9l-1.6,100.4c0,1.6,1.5,3.3,3.5,3.8l2.4.6c1.9.5,3.8-.3,4.1-1.9l18.6-96.1C209.5,275.8,206.6,262.4,200.2,260.8Z" transform="translate(-0.32 -5.48)"/><path class="alienQueue-1" d="M162.8,179.8a.52.52,0,0,0,.2-.4l.3-.6a8.08,8.08,0,0,0,.7-2.2,10,10,0,0,0-14.8-10.3h0a7.79,7.79,0,0,0-2.9,2.8l-35,52.4L63.6,164.8c-1.3-1.5-4.4-1.1-6.9.9-2.1,1.6-3.3,3.8-3.1,5.4v.5c.1.2.2.5.3.7l46.3,65.9,3.4,4.8a9.13,9.13,0,0,0,5.7,3.7l11.1-13.8,28.2-35.3h0l.6-.8Z" transform="translate(-0.32 -5.48)"/><path class="alienQueue-1" d="M239,219.2l-8.2,13-17.2,27.4c-1,1.7-4.2,1.7-7,0s-4.4-4.3-3.5-6L221,218.8l-30.5-41.6a9.53,9.53,0,0,1,2.4-13.4c.1-.1.2-.1.3-.2a10.39,10.39,0,0,1,6.2-1.7,9.59,9.59,0,0,1,7.5,4.4L229.2,203Z" transform="translate(-0.32 -5.48)"/><path class="alienQueue-1" d="M152.4,260.5l8-1.8c6.5-1.4,11.6,10,11.5,23.2l-1.3,100.4c0,1.6-1.6,3.2-3.6,3.6l-2.4.5c-2,.4-3.8-.4-4-2l-15.9-96.6C142.7,275.2,146,262,152.4,260.5Z" transform="translate(-0.32 -5.48)"/><path class="alienQueue-1" d="M176,294.1h0a16.43,16.43,0,0,1-11.6-4.8l-11.5-11.4a30.62,30.62,0,0,1-8.8-19.1,8,8,0,0,1,.9-4.3c9.8-21.8,8.8-45-.3-69.1a7.81,7.81,0,0,1-.6-3.7,32.09,32.09,0,0,1,31.8-30h0a32.07,32.07,0,0,1,31.9,30.6,10.07,10.07,0,0,1-.3,2.5c-5,21.1-10,42.1-.3,70.6a8.28,8.28,0,0,1,.5,3.5,28.75,28.75,0,0,1-8.3,18.5l-11.9,11.9A15.63,15.63,0,0,1,176,294.1Z" transform="translate(-0.32 -5.48)"/></g><g id="alien-shadow"><path class="alienQueue-4" d="M137.7,67.1c4.8-5.5,15.5-4,23.8,3.4,5.3,4.6,8.4,10.5,8.8,15.5.4-5.4-2.8-12.1-8.8-17.3-8.4-7.3-19-8.9-23.8-3.4a10,10,0,0,0-2.3,7.6A9.58,9.58,0,0,1,137.7,67.1Z" transform="translate(-0.32 -5.48)"/><path class="alienQueue-4" d="M191.3,70.5c8.4-7.3,19-8.8,23.8-3.4a9.53,9.53,0,0,1,2.2,5.6,10.26,10.26,0,0,0-2.2-7.9c-4.8-5.5-15.4-3.9-23.8,3.4-6,5.3-9.2,12.1-8.7,17.6C183.1,80.7,186.1,75,191.3,70.5Z" transform="translate(-0.32 -5.48)"/><ellipse class="alienQueue-4" cx="136.35" cy="50.9" rx="4.2" ry="1.8" transform="translate(42.41 156.87) rotate(-70.44)"/><ellipse class="alienQueue-4" cx="142.54" cy="56.36" rx="3" ry="1.4" transform="translate(41.39 166.33) rotate(-70.44)"/><ellipse class="alienQueue-4" cx="210.6" cy="56.4" rx="1.4" ry="3.1" transform="translate(-7.05 68.29) rotate(-19.56)"/><path class="alienQueue-5" d="M185.5,65.9,176.7,75l-9.1-8.8C173.7,69.9,179.6,69.6,185.5,65.9Z" transform="translate(-0.32 -5.48)"/><path class="alienQueue-6" d="M182.9,121.5c-5.2,1.1-12.7,0-12.7,0l3.5-2.4,2.8.8,3-.8Z" transform="translate(-0.32 -5.48)"/><ellipse class="alienQueue-6" cx="173.39" cy="102.22" rx="2.6" ry="1.6" transform="translate(33.25 241.53) rotate(-76.52)"/><ellipse class="alienQueue-6" cx="180.4" cy="102.21" rx="1.6" ry="2.6" transform="translate(-19.18 39.39) rotate(-13.48)"/><path class="alienQueue-7" d="M166.4,134c-4.1-3.5-8.4-10.6-12.9-19.1a147.54,147.54,0,0,1-6.3-14.5,41.21,41.21,0,0,1-9.7-9.4c.6.6,12.5,11.2,23.2,8.6,0,0-3,4.1-7.1,4.1C156.2,104.2,165.3,107.5,166.4,134Z" transform="translate(-0.32 -5.48)"/><path class="alienQueue-7" d="M184.9,134.3c4.5-3,9.8-9.6,13.7-18.6a75.5,75.5,0,0,0,5.5-15.3,32.14,32.14,0,0,0,10.4-9c-.6.6-13.3,10.8-23.9,8.2,0,0,3,4.1,7.1,4.1C195.2,104.2,186,107.7,184.9,134.3Z" transform="translate(-0.32 -5.48)"/><path class="alienQueue-8" d="M184.8,134.4h0c-1.2,2.9-4.6,9.9-8.8,9.9s-7.3-6.8-8.1-9.1a10.84,10.84,0,0,0,6.4,2.7A19.12,19.12,0,0,0,184.8,134.4Z" transform="translate(-0.32 -5.48)"/><path class="alienQueue-7" d="M199.8,275.4l-11.9,11.9a16.3,16.3,0,0,1-23.1,0l-11.5-11.5a30.62,30.62,0,0,1-8.8-19.1v-.8a6.72,6.72,0,0,0-.3,2.8,30.1,30.1,0,0,0,8.8,19.1l11.5,11.4a16.3,16.3,0,0,0,23.1,0h0l11.9-11.9a28.79,28.79,0,0,0,8.2-16.8A29.6,29.6,0,0,1,199.8,275.4Z" transform="translate(-0.32 -5.48)"/><path class="alienQueue-7" d="M203.4,204c1.1-6.5,2.6-12.9,4.1-19.2a8.81,8.81,0,0,0,.2-1.7C206.2,190,204.5,196.9,203.4,204Z" transform="translate(-0.32 -5.48)"/><path class="alienQueue-7" d="M151.2,233.1c2.7-16,.3-32.6-6.1-49.8a7.81,7.81,0,0,1-.6-3.7,14.92,14.92,0,0,1,.2-2.1,19.15,19.15,0,0,0-.5,4.1,9.29,9.29,0,0,0,.6,3.7C150.9,201.8,153.3,217.7,151.2,233.1Z" transform="translate(-0.32 -5.48)"/><path class="alienQueue-8" d="M196.8,162.1l-17.4,3.4a.68.68,0,0,1-.8-.4h0c0-.3.3-.2.7-.3l16.9-5c.4-.1,1.2,1.4,1.2,1.7h0c.1.3-.2.6-.6.6Z" transform="translate(-0.32 -5.48)"/><path class="alienQueue-8" d="M171.2,150.7s1.8,9.2,4.9,9.8c0,0,3.1.8,5.1-9.6,0,0-.8,11.4-4.9,12.3S171.2,150.7,171.2,150.7Z" transform="translate(-0.32 -5.48)"/><path class="alienQueue-8" d="M155.3,162.1l17.5,3.4a.68.68,0,0,0,.8-.4h0c0-.3-.3-.2-.7-.3l-16.9-5c-.4-.1-1.2,1.4-1.2,1.7h0A.46.46,0,0,0,155.3,162.1Z" transform="translate(-0.32 -5.48)"/><path class="alienQueue-7" d="M172.9,278.7c-18.1.3-23.9-20-23.9-20s5.9,6.8,10.3-1c0,0-3.9,6.8.3,7.6,0,0,8.8-2.7,9.5,2.9Z" transform="translate(-0.32 -5.48)"/><path class="alienQueue-7" d="M180.4,279.1c18.1-.9,22.4-21.6,22.4-21.6s-5.4,7.2-10.3-.3c0,0,4.3,6.5.2,7.6,0,0-9-2.1-9.3,3.6Z" transform="translate(-0.32 -5.48)"/><ellipse class="alienQueue-7" cx="177.08" cy="247.32" rx="1.1" ry="2.4"/><path class="alienQueue-8" d="M170.7,204.2,174,170c.1-.7-.1-1.4-.4-1.4h0c-.3,0-.2.6-.3,1.4l-4.9,33.6c-.1.7,1.4,1.9,1.7,1.9h0C170.4,205.6,170.7,205,170.7,204.2Z" transform="translate(-0.32 -5.48)"/><path class="alienQueue-8" d="M182.3,204.3l-3.6-34.4c-.1-.7.1-1.4.4-1.4h0c.3,0,.2.7.3,1.4l5.2,33.8c.1.7-1.4,1.9-1.7,1.9h0C182.7,205.7,182.4,205.1,182.3,204.3Z" transform="translate(-0.32 -5.48)"/><path class="alienQueue-7" d="M173.9,216.7a22.89,22.89,0,0,1-11.9-4,13,13,0,0,1-4.5-4.8,10.16,10.16,0,0,1-1-6.4h.3a43.26,43.26,0,0,0,3.1,5.1,30.19,30.19,0,0,0,3.5,4.5,23.39,23.39,0,0,0,4.9,3.3,23,23,0,0,0,5.7,2.1Z" transform="translate(-0.32 -5.48)"/><path class="alienQueue-7" d="M172.6,229a22.89,22.89,0,0,1-11.9-4,13,13,0,0,1-4.5-4.8,10.88,10.88,0,0,1-1-6.4h.2a43.26,43.26,0,0,0,3.1,5.1,30.19,30.19,0,0,0,3.5,4.5,23.39,23.39,0,0,0,4.9,3.3,23,23,0,0,0,5.7,2.1Z" transform="translate(-0.32 -5.48)"/><path class="alienQueue-7" d="M173.4,242.3a22.89,22.89,0,0,1-11.9-4,12.21,12.21,0,0,1-4.5-4.8,10.88,10.88,0,0,1-1-6.4h.3a43.26,43.26,0,0,0,3.1,5.1,30.19,30.19,0,0,0,3.5,4.5,23.39,23.39,0,0,0,4.9,3.3,23,23,0,0,0,5.7,2.1Z" transform="translate(-0.32 -5.48)"/><path class="alienQueue-7" d="M179.4,216.6a27.31,27.31,0,0,0,5.5-2.5,23.46,23.46,0,0,0,4.7-3.6,25.93,25.93,0,0,0,3.2-4.7,52.78,52.78,0,0,0,2.7-5.3h.3a10.38,10.38,0,0,1-.6,6.5,13,13,0,0,1-4.2,5.1,24.52,24.52,0,0,1-11.6,4.9Z" transform="translate(-0.32 -5.48)"/><path class="alienQueue-7" d="M181.6,228.8a27.31,27.31,0,0,0,5.5-2.5,23.46,23.46,0,0,0,4.7-3.6A25.93,25.93,0,0,0,195,218a52.78,52.78,0,0,0,2.7-5.3h.3a10.38,10.38,0,0,1-.6,6.5,13,13,0,0,1-4.2,5.1,24.1,24.1,0,0,1-11.6,4.9Z" transform="translate(-0.32 -5.48)"/><path class="alienQueue-7" d="M181.7,242.1a27.31,27.31,0,0,0,5.5-2.5,23.46,23.46,0,0,0,4.7-3.6,21.67,21.67,0,0,0,3.2-4.7,52.78,52.78,0,0,0,2.7-5.3h.3a10.38,10.38,0,0,1-.6,6.5,13,13,0,0,1-4.2,5.1,24.1,24.1,0,0,1-11.6,4.9Z" transform="translate(-0.32 -5.48)"/><path class="alienQueue-7" d="M186.5,386.4a3.75,3.75,0,0,1-2.1,0l-2.4-.6c-1.9-.5-3.5-2.1-3.5-3.7l1.4-88.4c.6-.2,1.3-.4,1.9-.6l-1.4,89c0,1.6,1.5,3.3,3.5,3.8l2.4.6A.31.31,0,0,1,186.5,386.4Z" transform="translate(-0.32 -5.48)"/><path class="alienQueue-7" d="M148.7,197.6h0l-28.3,35.2-11,13.8a8.88,8.88,0,0,1-5.7-3.7l-3.4-4.8L54,172.3a4.88,4.88,0,0,1-.3-.7v-1.1a.75.75,0,0,1,.1-.5,6.12,6.12,0,0,1,.5-1.2c0-.1.1-.2.2-.3a2.15,2.15,0,0,0,.4,1.6L101,236l3.4,4.8a9.13,9.13,0,0,0,5.7,3.7l11.1-13.8,27.2-34.1C148.5,196.9,148.6,197.3,148.7,197.6Z" transform="translate(-0.32 -5.48)"/><path class="alienQueue-7" d="M208,259.7a9.77,9.77,0,0,0,3,1.1,9.19,9.19,0,0,1-3.3-.6l-.6-.3a2.19,2.19,0,0,1-.5-.3c-2.8-1.6-4.4-4.3-3.5-6.1l2.3-4.4,15.7-30.5-16.1-22c.1-.5.2-.9.3-1.4l17.2,23.4L206,250.7l-1.4,2.7c-.9,1.7.6,4.3,3.3,5.9Z" transform="translate(-0.32 -5.48)"/><path class="alienQueue-7" d="M164.8,386.5h-.1c-2,.4-3.8-.4-4-2l-15.9-96.6c-1.2-7.4-.6-15,1.4-20.4l1.2,2.7a44,44,0,0,0-.6,17.7l15.9,96.6A2.55,2.55,0,0,0,164.8,386.5Z" transform="translate(-0.32 -5.48)"/><ellipse class="alienQueue-4" cx="214.61" cy="49.09" rx="1.8" ry="4.2" transform="translate(-4.37 69.21) rotate(-19.56)"/></g><g id="alien-sign"><path class="alienQueue-9" d="M59.1,93.2h2.3a.68.68,0,0,1,.7.7V197.3a.68.68,0,0,1-.7.7H59.1a.68.68,0,0,1-.7-.7V93.9A.75.75,0,0,1,59.1,93.2Z" transform="translate(-0.32 -5.48)"/><circle id="alien-sign-circle" class="alienQueue-10" cx="58.4" cy="58.4" r="58.4"/><text class="alienQueue-11" transform="translate(31.85 73.59)">00</text></g></svg>