<svg id="astronaut" xmlns="http://www.w3.org/2000/svg" xmlns:xlink="http://www.w3.org/1999/xlink" viewBox="0 0 438.65 400.7"><defs><style>.cls-1,.cls-40,.cls-41{fill:#c6c6c6;}.cls-1,.cls-11,.cls-2,.cls-3,.cls-32,.cls-33,.cls-34,.cls-35,.cls-36,.cls-39,.cls-40,.cls-41,.cls-6,.cls-7,.cls-8,.cls-9{stroke:#1d1d1b;}.cls-1,.cls-11,.cls-2,.cls-27,.cls-28,.cls-29,.cls-3,.cls-30,.cls-31,.cls-39,.cls-6,.cls-7,.cls-8{stroke-miterlimit:10;}.cls-2,.cls-5{fill:#1d1d1b;}.cls-2,.cls-6{stroke-width:0.25px;}.cls-10,.cls-11,.cls-16,.cls-18,.cls-20,.cls-22,.cls-24,.cls-26,.cls-29,.cls-3,.cls-31,.cls-39{fill:none;}.cls-30,.cls-33,.cls-4,.cls-6,.cls-7,.cls-8,.cls-9{fill:#fff;}.cls-11,.cls-8{stroke-width:0.5px;}.cls-9{stroke-miterlimit:10;stroke-width:0.5px;}.cls-12{fill:#706f6f;}.cls-13,.cls-27{fill:#f39200;}.cls-14{fill:#359c37;}.cls-15,.cls-17,.cls-19,.cls-21,.cls-23,.cls-25{fill:#063;}.cls-15,.cls-16,.cls-17,.cls-18,.cls-19,.cls-20,.cls-21,.cls-22,.cls-23,.cls-24,.cls-25,.cls-26{stroke:#063;}.cls-15,.cls-16{stroke-miterlimit:10;}.cls-15{stroke-width:0.75px;}.cls-16{stroke-width:2px;}.cls-17{stroke-miterlimit:10.02;stroke-width:0.75px;}.cls-18{stroke-miterlimit:10;stroke-width:2px;}.cls-19,.cls-20{stroke-miterlimit:10;}.cls-19{stroke-width:0.75px;}.cls-20{stroke-width:2px;}.cls-21{stroke-miterlimit:10;stroke-width:0.75px;}.cls-22{stroke-miterlimit:10.02;stroke-width:2px;}.cls-23,.cls-24{stroke-miterlimit:10;}.cls-23{stroke-width:0.75px;}.cls-24{stroke-width:2px;}.cls-25,.cls-26{stroke-miterlimit:10;}.cls-25{stroke-width:0.75px;}.cls-26{stroke-width:2px;}.cls-27,.cls-28,.cls-29,.cls-30,.cls-31{stroke:#fff;}.cls-27,.cls-28,.cls-29,.cls-31,.cls-39{stroke-width:0.75px;}.cls-28{fill:url(#linear-gradient);}.cls-31{stroke-linecap:round;}.cls-32{fill:#9d9d9c;}.cls-32,.cls-33,.cls-34,.cls-35,.cls-36{stroke-miterlimit:10;}.cls-34{fill:#3c3c3b;}.cls-35{fill:#009640;}.cls-36{fill:#e30613;}.cls-37{fill:#003510;}.cls-38{fill:#450500;}.cls-40{stroke-miterlimit:10;}.cls-41{stroke-miterlimit:10;}</style><linearGradient id="linear-gradient" x1="-66.46" y1="-257.54" x2="-59.01" y2="-197.27" gradientTransform="matrix(-0.22, -0.98, -0.98, 0.22, -154.24, 310.31)" gradientUnits="userSpaceOnUse"><stop offset="0.2" stop-color="#f9b233"/><stop offset="0.29" stop-color="#f7ba4d"/><stop offset="0.54" stop-color="#f3d091"/><stop offset="0.75" stop-color="#f0e0c3"/><stop offset="0.91" stop-color="#eee9e1"/><stop offset="1" stop-color="#ededed"/></linearGradient></defs><g id="astronaut-body"><path class="cls-1" d="M219.47,84.28V52a9.68,9.68,0,0,1,3.68-7.54A69.45,69.45,0,0,0,93.79,45a10,10,0,0,1,2.55,1.83,9.47,9.47,0,0,1,2.83,6.79V85.88a9.71,9.71,0,0,1-5.5,8.71,69.47,69.47,0,0,0,130.55-2A9.6,9.6,0,0,1,219.47,84.28Zm-60.91,11.1c-27.55,0-49.87,13-49.87-16.07s22.31-52.5,49.87-52.5S208.4,50.33,208.4,79.35,186.11,95.38,158.56,95.38Z" transform="translate(0 -0.04)"/><path class="cls-2" d="M99.16,53.53V85.81a9.71,9.71,0,0,1-5.5,8.71,69.38,69.38,0,0,1,.13-49.65,10,10,0,0,1,2.54,1.83A9.47,9.47,0,0,1,99.16,53.53Z" transform="translate(0 -0.04)"/><path class="cls-2" d="M228,70a68.66,68.66,0,0,1-3.78,22.59,9.63,9.63,0,0,1-4.74-8.27V52a9.64,9.64,0,0,1,3.67-7.54A69.35,69.35,0,0,1,228,70Z" transform="translate(0 -0.04)"/><path class="cls-1" d="M210.86,396.1l-36.1,4.09a8.64,8.64,0,0,1-9.53-7.58l-4-35.28-2.45,34.87a8.43,8.43,0,0,1-9,7.8h0l-36.22-2.47a8.6,8.6,0,0,1-8-9.16h0l8-114.2a14.59,14.59,0,0,1,0-1.62v-3.3l-.69-139.58H114a69.35,69.35,0,0,0,88.86-.25h.72l1.48,139.39v1.51a2.08,2.08,0,0,0,.09.6l13.15,115.89a8.43,8.43,0,0,1-7.41,9.33Z" transform="translate(0 -0.04)"/><line class="cls-3" x1="203.5" y1="129.38" x2="202.78" y2="129.38"/><line class="cls-3" x1="113.92" y1="129.63" x2="112.98" y2="129.63"/><path class="cls-4" d="M168.19,352.35c14.22,6.32,27.42,5.84,39.47-2.19a4.71,4.71,0,0,0,4.41-5h0a4.67,4.67,0,0,0-4.89-4.44h0q-19.1,13.3-39.47,2.19a4.69,4.69,0,0,0-4.41,4.95v.05h0A4.69,4.69,0,0,0,168.19,352.35Z" transform="translate(0 -0.04)"/><path class="cls-5" d="M167.9,353.93a6.28,6.28,0,0,1-.28-12.54H168l.38.2c13.16,7.18,25.55,6.5,37.88-2.1l.36-.24H207a6.28,6.28,0,0,1,1.09,12.49A38.49,38.49,0,0,1,189,358.23,46.42,46.42,0,0,1,167.9,353.93Zm-.5-9.36a3.13,3.13,0,0,0,.71,6.21h.36l.33.15c14.11,6.26,26.54,5.58,38-2.07l.35-.23h.41a3.13,3.13,0,0,0,0-6.24c-12.9,8.79-26.43,9.54-40.21,2.14Z" transform="translate(0 -0.04)"/><path class="cls-4" d="M169,367.15c14.22,6.32,27.42,5.84,39.47-2.19a4.71,4.71,0,0,0,4.41-5h0a4.67,4.67,0,0,0-4.89-4.44h0q-19.09,13.31-39.47,2.19a4.71,4.71,0,0,0-4.41,5h0A4.69,4.69,0,0,0,169,367.15Z" transform="translate(0 -0.04)"/><path class="cls-5" d="M168.68,368.73a6.28,6.28,0,0,1-.28-12.54h.42l.38.2c13.16,7.18,25.55,6.5,37.88-2.1l.36-.24h.42A6.28,6.28,0,0,1,209,366.53,38.65,38.65,0,0,1,189.83,373,46.16,46.16,0,0,1,168.68,368.73Zm-.5-9.35a3.13,3.13,0,0,0,.71,6.2h.36l.33.15c14.11,6.26,26.54,5.58,38-2.07l.35-.22h.41a3.13,3.13,0,0,0,0-6.24c-12.85,8.79-26.33,9.53-40.16,2.18Z" transform="translate(0 -0.04)"/><path class="cls-4" d="M166.88,337.58c14.22,6.31,27.41,5.84,39.46-2.19a4.71,4.71,0,0,0,4.42-4.95h0a4.68,4.68,0,0,0-4.91-4.44h0q-19.09,13.29-39.47,2.19a4.71,4.71,0,0,0-4.41,4.95h0A4.7,4.7,0,0,0,166.88,337.58Z" transform="translate(0 -0.04)"/><path class="cls-5" d="M166.56,339.16a6.28,6.28,0,0,1-.28-12.54h.43l.38.21c13.16,7.18,25.55,6.5,37.88-2.1l.35-.24h.43a6.28,6.28,0,0,1,1.09,12.5,38.62,38.62,0,0,1-19.17,6.49A46.3,46.3,0,0,1,166.56,339.16Zm-.5-9.36a3.13,3.13,0,0,0,.72,6.21h.36l.33.14c14.1,6.27,26.53,5.6,38-2.06l.34-.23h.41a3.13,3.13,0,0,0,.06-6.24c-12.89,8.79-26.42,9.54-40.2,2.18Z" transform="translate(0 -0.04)"/><polygon class="cls-6" points="166.33 334.24 165.04 333.93 164.64 332.63 165.55 331.63 166.85 331.93 167.23 333.24 166.33 334.24"/><polygon class="cls-6" points="167.64 348.84 166.33 348.53 165.95 347.23 166.85 346.23 168.14 346.53 168.54 347.84 167.64 348.84"/><polygon class="cls-6" points="168.92 363.89 167.64 363.59 167.23 362.28 168.14 361.28 169.45 361.59 169.83 362.89 168.92 363.89"/><polygon class="cls-6" points="206.76 332.38 205.47 332.07 205.07 330.77 205.98 329.77 207.27 330.07 207.67 331.38 206.76 332.38"/><polygon class="cls-6" points="208.63 346.53 207.32 346.23 206.94 344.92 207.83 343.92 209.14 344.23 209.52 345.53 208.63 346.53"/><polygon class="cls-6" points="209.64 361.73 208.33 361.42 207.95 360.12 208.85 359.12 210.14 359.42 210.54 360.73 209.64 361.73"/><polygon class="cls-6" points="188.08 338.9 186.79 338.59 186.39 337.29 187.29 336.29 188.6 336.59 188.98 337.9 188.08 338.9"/><polygon class="cls-6" points="188.86 353.25 187.57 352.95 187.17 351.64 188.07 350.64 189.38 350.95 189.76 352.25 188.86 353.25"/><polygon class="cls-6" points="190.42 368.06 189.11 367.75 188.72 366.45 189.63 365.45 190.92 365.75 191.32 367.06 190.42 368.06"/><rect class="cls-5" x="120.78" y="294.24" width="34.12" height="20.61" rx="3.28"/><path class="cls-4" d="M154.61,350c-13.65,6.81-26.65,7.06-38.92,0a4.59,4.59,0,0,1-4.59-4.52h0a4.58,4.58,0,0,1,4.59-4.52q19.47,11.76,38.92,0a4.56,4.56,0,0,1,4.6,4.52h0A4.58,4.58,0,0,1,154.61,350Z" transform="translate(0 -0.04)"/><path class="cls-5" d="M134.46,356.73a38.61,38.61,0,0,1-19.19-5.2,6,6,0,1,1,.42-12h.42l.36.22c12.58,7.59,24.79,7.59,37.36,0l.36-.22h.42a6,6,0,1,1,.38,12h0A46.48,46.48,0,0,1,134.46,356.73Zm-19.14-14.2a3,3,0,1,0,.37,6h.41l.35.2c11.68,6.72,24,6.71,37.49,0l.32-.16h.35a3,3,0,0,0,.38-6h0c-13.16,7.76-26.51,7.76-39.67,0Z" transform="translate(0 -0.04)"/><path class="cls-4" d="M154.61,364.27c-13.65,6.82-26.65,7.07-38.92,0a4.57,4.57,0,0,1-4.59-4.46h0a4.56,4.56,0,0,1,4.59-4.52q19.47,11.74,38.92,0a4.56,4.56,0,0,1,4.6,4.52h0A4.59,4.59,0,0,1,154.61,364.27Z" transform="translate(0 -0.04)"/><path class="cls-5" d="M134.46,371a38.61,38.61,0,0,1-19.19-5.2,6,6,0,0,1,.42-12h.42l.36.22c12.58,7.59,24.79,7.59,37.36,0l.36-.22h.42a6,6,0,1,1,.38,12h0A46.48,46.48,0,0,1,134.46,371Zm-19.14-14.16a3,3,0,1,0,.37,6h.41l.35.2c11.68,6.73,24,6.72,37.49,0l.32-.16h.35a3,3,0,0,0,.38-6c-13.16,7.66-26.51,7.66-39.67-.06Z" transform="translate(0 -0.04)"/><path class="cls-4" d="M155.14,335.81c-13.65,6.81-26.65,7.06-38.92,0a4.58,4.58,0,0,1-4.59-4.52h0a4.55,4.55,0,0,1,4.59-4.51h0q19.47,11.75,38.92,0a4.57,4.57,0,0,1,4.6,4.51h0A4.58,4.58,0,0,1,155.14,335.81Z" transform="translate(0 -0.04)"/><path class="cls-5" d="M135,342.53a38.62,38.62,0,0,1-19.19-5.21,6,6,0,1,1,.42-12h.42l.36.22c12.57,7.58,24.79,7.58,37.36,0l.36-.22h.42a6,6,0,1,1,.38,12A46.62,46.62,0,0,1,135,342.53Zm-19.15-14.2a3,3,0,1,0,.38,6h.41l.35.2c11.69,6.73,24,6.72,37.49,0l.32-.16h.35a3,3,0,0,0,.38-6c-13.17,7.72-26.51,7.72-39.68-.07Z" transform="translate(0 -0.04)"/><polygon class="cls-6" points="116.79 332.71 115.51 332.42 115.12 331.17 116.01 330.21 117.29 330.5 117.68 331.75 116.79 332.71"/><polygon class="cls-6" points="136.07 337.72 134.79 337.43 134.42 336.18 135.3 335.22 136.58 335.51 136.97 336.77 136.07 337.72"/><polygon class="cls-6" points="155.44 332.71 154.16 332.42 153.77 331.17 154.67 330.21 155.95 330.5 156.32 331.75 155.44 332.71"/><polygon class="cls-6" points="115.92 346.88 114.64 346.59 114.26 345.34 115.15 344.38 116.43 344.67 116.81 345.92 115.92 346.88"/><polygon class="cls-6" points="115.51 360.9 114.23 360.61 113.84 359.36 114.73 358.4 116.01 358.69 116.4 359.94 115.51 360.9"/><polygon class="cls-6" points="155.44 346.88 154.16 346.59 153.77 345.34 154.67 344.38 155.95 344.67 156.32 345.92 155.44 346.88"/><polygon class="cls-6" points="155.44 360.9 154.16 360.61 153.77 359.36 154.67 358.4 155.95 358.69 156.32 359.94 155.44 360.9"/><polygon class="cls-6" points="136.07 352.43 134.79 352.14 134.42 350.88 135.3 349.92 136.58 350.21 136.97 351.47 136.07 352.43"/><polygon class="cls-6" points="135.54 366.36 134.27 366.07 133.89 364.81 134.77 363.85 136.05 364.14 136.45 365.4 135.54 366.36"/><rect class="cls-7" x="132.45" y="218.43" width="33.97" height="26.25" rx="2.41"/><path class="cls-7" d="M141.42,165.92a58.43,58.43,0,0,1,0,36.92h-1.7a16.31,16.31,0,0,1-16.26-16.26v-4.4a16.31,16.31,0,0,1,16.26-16.26Z" transform="translate(0 -0.04)"/><path class="cls-7" d="M188.68,182.18v4.4a16.32,16.32,0,0,1-16.26,16.23H149.63c-5.25-12.53-5.45-24.84,0-36.92h22.79A16.31,16.31,0,0,1,188.68,182.18Z" transform="translate(0 -0.04)"/><rect class="cls-8" x="155.94" y="171.78" width="4.06" height="4.06" rx="0.65"/><rect class="cls-9" x="170.88" y="171.81" width="4.06" height="4.06" rx="0.65" transform="translate(-60.79 248) rotate(-62.77)"/><rect class="cls-9" x="155.93" y="182.31" width="4.06" height="4.06" rx="0.65" transform="translate(-78.23 240.4) rotate(-62.77)"/><rect class="cls-9" x="170.78" y="182.32" width="4.06" height="4.06" rx="0.65" transform="translate(-70.18 253.61) rotate(-62.77)"/><rect class="cls-9" x="155.94" y="192.83" width="4.06" height="4.06" rx="0.65" transform="translate(-87.58 246.11) rotate(-62.77)"/><rect class="cls-9" x="170.88" y="192.84" width="4.06" height="4.06" rx="0.65" transform="translate(-79.48 259.4) rotate(-62.77)"/><path class="cls-5" d="M140.49,193.92l-.51-.6-4,3.49-2.24-4.59,3.09-2.2,1.51,3.46.72-.32.72-.31-1.63-3.74,2.86-2-.44-.62-.47-.63-2.58,1.82-2.08-4.87,3.08-2.32.51,1.16.72-.28.72-.32-.66-1.51,1.2-.88-.44-.63-.47-.63-.92.66-2.17-5,3.21-2.39-.47-.62-.47-.63-2.93,2.07-.78-1.82-1.45.63.94,2.17-3.11,2.34-.6-1.35-.72.32-.72.31.72,1.67-3.17,2.36.44.66h0l.44.63,2.92-2.14,2.2,5.06-3.27,2.42-1.6-3.33-.72.34-.7.35,1.73,3.62-2,1.44.47.63.44.63,1.73-1.29,2.17,4.53-2.29,1.6.44.63.47.66,2-1.48,2.27,4.75-.35.32.5.59.51.6,5.72-4.81Zm-8-17.61L135.6,174l2.2,5.06-3.11,2.29Zm-1.7,9.88,3.21-2.38,2.08,4.74-3.08,2.2Z" transform="translate(0 -0.04)"/><line class="cls-10" x1="138.98" y1="193.95" x2="138.95" y2="193.95"/><path class="cls-6" d="M184.56,185.53c.3,3.33-.76,4.93-2.24,4.28,0,0-1.1-1.54,0-2.39A12.67,12.67,0,0,1,184.56,185.53Z" transform="translate(0 -0.04)"/><path class="cls-6" d="M182.29,179.26c1.15-.4,2,.32,1.86,2.24a6.86,6.86,0,0,0-1.07.31C181.73,182.06,182.29,179.26,182.29,179.26Z" transform="translate(0 -0.04)"/><path class="cls-2" d="M160,233.32c-.66.12-1.32.22-2,.28,0,0-1.17.91,0,2.55-1.26,0-2.27-2.36-2.27-5.29s1-5.28,2.27-5.28c-1.57,2.08,0,3.14,0,3.14h2.07c27.67-.26,39.59-34.34,34.56-41.7-3.37-4.93-7.58-3.3-10.09-1.54a12.67,12.67,0,0,0-2.24,1.89c-1.1.85,0,2.39,0,2.39-1.25,0-2.26-2.36-2.26-5.25s1-5.29,2.26-5.29c0,0-.56,2.8.79,2.55a6.86,6.86,0,0,1,1.07-.31c3.43-1,14-3,14.78,7.73C199.87,201.87,191,228.81,160,233.32Z" transform="translate(0 -0.04)"/><path class="cls-6" d="M158,233.6c.66-.06,1.32-.16,2-.28.58,2.62-.52,3.41-2,2.83C156.82,234.53,158,233.6,158,233.6Z" transform="translate(0 -0.04)"/><path class="cls-6" d="M158,225.58c1.45-.35,2.76.59,2.07,3.18H158C156.93,228.76,156.42,227.66,158,225.58Z" transform="translate(0 -0.04)"/><path class="cls-4" d="M161.32,228.72a4.42,4.42,0,0,0-.57,2.22,4.68,4.68,0,0,0,.9,2.11,2.84,2.84,0,0,1-1.12-.75,2.28,2.28,0,0,1,.2-3.21A2.43,2.43,0,0,1,161.32,228.72Z" transform="translate(0 -0.04)"/><path class="cls-4" d="M166.75,228c-.24.85-.63,1.68-.44,2.27s.94.87,1.76,1.23a2.93,2.93,0,0,1-1.38,0,1.58,1.58,0,0,1-1.14-1.06A2.48,2.48,0,0,1,166.75,228Z" transform="translate(0 -0.04)"/><path class="cls-4" d="M173.34,225.75c-.18.83-.53,1.68-.29,2.18s1,.61,1.87.84a3.28,3.28,0,0,1-1.31.28,1.55,1.55,0,0,1-1.29-.83,1.89,1.89,0,0,1,.16-1.47A2.67,2.67,0,0,1,173.34,225.75Z" transform="translate(0 -0.04)"/><path class="cls-4" d="M179.72,221.81a6.14,6.14,0,0,0-.32,2.29c.07.53,1,.64,1.86.83a2.8,2.8,0,0,1-1.33.31,1.42,1.42,0,0,1-1.29-.92,2.15,2.15,0,0,1,.23-1.47A2.87,2.87,0,0,1,179.72,221.81Z" transform="translate(0 -0.04)"/><path class="cls-4" d="M184.34,217.53c-.11.9-.31,2,.17,2.21a10.75,10.75,0,0,0,2.47.13,4.45,4.45,0,0,1-1.29.64,2.16,2.16,0,0,1-1.6-.11,1.44,1.44,0,0,1-.48-1.61A3.14,3.14,0,0,1,184.34,217.53Z" transform="translate(0 -0.04)"/><path class="cls-4" d="M188.06,212.93c0,.92.08,2,.71,2a9.2,9.2,0,0,0,2.55-.48,3.35,3.35,0,0,1-2.71,1.25,1.3,1.3,0,0,1-1-1.37A2.8,2.8,0,0,1,188.06,212.93Z" transform="translate(0 -0.04)"/><path class="cls-4" d="M192.09,206a10.81,10.81,0,0,0,.19,1.65c.08.52.28,1,.52.89a2.8,2.8,0,0,0,1.25-.6c.45-.3.9-.65,1.39-1a5.82,5.82,0,0,1-1,1.41,2.71,2.71,0,0,1-1.65.93,1,1,0,0,1-1-.7,2.17,2.17,0,0,1-.16-.94A4.47,4.47,0,0,1,192.09,206Z" transform="translate(0 -0.04)"/><path class="cls-4" d="M195.16,197c.14.51.27,1,.41,1.48s.39.9.55.87a2.84,2.84,0,0,0,1-.6c.33-.31.75-.67,1.18-1a5.06,5.06,0,0,1-.74,1.42,2,2,0,0,1-1.53,1,1.55,1.55,0,0,1-1.06-1.54A4.3,4.3,0,0,1,195.16,197Z" transform="translate(0 -0.04)"/><path class="cls-4" d="M195.56,189.81c.32.31.65.61,1,.9s.7.45.9.34a2.45,2.45,0,0,0,.71-.76l.67-1.21a3.93,3.93,0,0,1-.12,1.45,1.79,1.79,0,0,1-1,1.28,1.6,1.6,0,0,1-1.55-.68A3.26,3.26,0,0,1,195.56,189.81Z" transform="translate(0 -0.04)"/><path class="cls-4" d="M193.7,185.89c1,0,2-.23,2-1a11.3,11.3,0,0,0-.25-2.72,3.69,3.69,0,0,1,1,2.86,1.5,1.5,0,0,1-1.24,1.21A2.36,2.36,0,0,1,193.7,185.89Z" transform="translate(0 -0.04)"/><path class="cls-4" d="M186.89,184.25l1.2-1c.37-.3.71-.77.6-.91a3.38,3.38,0,0,0-1-.67c-.44-.18-1-.38-1.47-.61a5.7,5.7,0,0,1,1.65,0,2,2,0,0,1,1.58,1,1.66,1.66,0,0,1-1,1.64A4.76,4.76,0,0,1,186.89,184.25Z" transform="translate(0 -0.04)"/><path class="cls-11" d="M148.56,224.38c-8.94,4.63-10.41,9.56,0,14.45a2.82,2.82,0,0,1-2.8,2.8h0a2.82,2.82,0,0,1-2.76-2.82c8.94-5,8.72-9.8,0-14.45a2.81,2.81,0,0,1,2.79-2.8h0A2.81,2.81,0,0,1,148.56,224.38Z" transform="translate(0 -0.04)"/><polygon class="cls-6" points="146.02 232.86 144.7 232.55 144.29 231.25 145.23 230.25 146.55 230.55 146.95 231.86 146.02 232.86"/><rect class="cls-5" x="167.52" y="294.24" width="34.12" height="20.61" rx="3.28"/><polygon class="cls-5" points="160.73 357.26 161.23 296.81 161.73 357.26 160.73 357.26"/></g><g id="astronaut-left-palm"><g id="astronaut-left-palm-2"><path class="cls-1" d="M245.25,271.42l-30-5.86,8.41-43A14.61,14.61,0,0,1,240.79,211h0a15.93,15.93,0,0,1,12.57,18.68Z" transform="translate(0 -0.04)"/><circle class="cls-7" cx="228.09" cy="279.55" r="16.86"/><path class="cls-5" d="M222.27,252.29l.43.13.4-.2c7.7-2.79,13.94-1.08,19,5.35l.32.36.38.12a3.81,3.81,0,0,0,3-7,3,3,0,0,0-.58-.19,22.8,22.8,0,0,0-21.25-6,4,4,0,0,0-4.81,2.6,4.08,4.08,0,0,0,3.12,4.84h0Zm-.54-4.07a1.43,1.43,0,0,1,1.84-.64l.35.07.33-.07A20.18,20.18,0,0,1,243.59,253l.24.25.32.09c.93.25,1.39,1,1.25,1.51s-.71.74-1.45.67c-5.71-6.92-12.86-8.93-21.33-6a1.31,1.31,0,0,1-.89-1.29Z" transform="translate(0 -0.04)"/></g><g id="sign"><rect class="cls-12" x="265.07" y="219.27" width="4.8" height="129.44" rx="0.77" transform="matrix(0.14, -0.99, 0.99, 0.14, -51.41, 508.68)"/><circle class="cls-13" cx="374.55" cy="299.18" r="64.1"/></g><g id="money"><rect class="cls-14" x="242.55" y="255.93" width="21" height="54.38" transform="translate(-71.12 480.82) rotate(-79.59)"/><ellipse class="cls-15" cx="254.11" cy="282.32" rx="8.79" ry="5.99" transform="translate(-69.37 481.36) rotate(-79.62)"/><rect class="cls-16" x="245.01" y="256.39" width="18.26" height="51.68" transform="translate(-69.27 481.32) rotate(-79.62)"/><path class="cls-4" d="M254.79,281.68a3.83,3.83,0,1,1-3.24,6.95h0l-.3-.16a.58.58,0,0,1-.26-.78h0a.59.59,0,0,1,.79-.24,2.67,2.67,0,0,0,2.58-4.67l-.12-.07A.57.57,0,0,1,254,282h0a.58.58,0,0,1,.78-.26h0Z" transform="translate(0 -0.04)"/><path class="cls-4" d="M257.78,275.91a.58.58,0,0,1,.26.78h0a.57.57,0,0,1-.76.26h0a2.66,2.66,0,1,0-2.45,4.73.59.59,0,0,1-.55,1h0a3.83,3.83,0,1,1,3.39-6.88l.15.08Z" transform="translate(0 -0.04)"/><rect class="cls-4" x="251.46" y="288.57" width="2.35" height="1.14" rx="0.53" transform="translate(-77.29 485.5) rotate(-79.62)"/><rect class="cls-4" x="254" y="274.67" width="2.35" height="1.14" rx="0.53" transform="translate(-61.55 476.6) rotate(-79.62)"/><rect class="cls-14" x="228.23" y="275.84" width="21.08" height="54.58" transform="translate(-101.87 121.79) rotate(-23.75)"/><ellipse class="cls-17" cx="238.17" cy="303.84" rx="8.81" ry="6" transform="translate(-102.77 122.68) rotate(-23.93)"/><rect class="cls-18" x="229.64" y="277.31" width="18.26" height="51.68" transform="translate(-101.87 121.79) rotate(-23.75)"/><path class="cls-4" d="M239.6,303.37a3.84,3.84,0,1,1-7.63.89h0a.57.57,0,0,1,.51-.64.58.58,0,0,1,.65.51h0a2.67,2.67,0,0,0,5.31-.59v-.06a.58.58,0,0,1,.5-.65h0a.6.6,0,0,1,.65.52h0Z" transform="translate(0 -0.04)"/><path class="cls-4" d="M246,302.61a.59.59,0,0,1-.5.66h0a.58.58,0,0,1-.65-.5h0a2.66,2.66,0,0,0-5.29.62.57.57,0,0,1-.51.64.58.58,0,0,1-.65-.51,3.83,3.83,0,1,1,7.61-.89h0Z" transform="translate(0 -0.04)"/><rect class="cls-4" x="231.05" y="305.2" width="2.35" height="1.14" rx="0.53" transform="translate(-103.48 119.38) rotate(-23.75)"/><rect class="cls-4" x="243.99" y="299.52" width="2.35" height="1.14" rx="0.53" transform="translate(-100.1 124.11) rotate(-23.75)"/><rect class="cls-14" x="237.82" y="275.16" width="21.08" height="54.58" transform="translate(-141.71 334.15) rotate(-55.26)"/><ellipse class="cls-19" cx="248.29" cy="302.51" rx="8.79" ry="5.99" transform="translate(-141.79 334.11) rotate(-55.26)"/><rect class="cls-20" x="239.23" y="276.61" width="18.26" height="51.68" transform="translate(-141.71 334.15) rotate(-55.26)"/><path class="cls-4" d="M249.18,302.21a3.83,3.83,0,0,1-6,4.74.58.58,0,1,1,.89-.75h0a2.67,2.67,0,0,0,4.25-3.22l-.06-.08a.59.59,0,0,1,.07-.82.59.59,0,0,1,.83.07h0Z" transform="translate(0 -0.04)"/><path class="cls-4" d="M254.29,298.19a.59.59,0,0,1-.92.73h0a2.66,2.66,0,0,0-4.19,3.29h0a.58.58,0,0,1-.89.75h0a3.84,3.84,0,0,1,5.92-4.88.76.76,0,0,0,.11.14Z" transform="translate(0 -0.04)"/><rect class="cls-4" x="242.98" y="307.55" width="2.35" height="1.14" rx="0.53" transform="translate(-148.18 333.12) rotate(-55.26)"/><rect class="cls-4" x="251.03" y="295.94" width="2.35" height="1.14" rx="0.53" transform="translate(-135.17 334.74) rotate(-55.26)"/><rect class="cls-14" x="240.96" y="262.22" width="21.08" height="54.58" transform="translate(-127.01 351.12) rotate(-58.27)"/><ellipse class="cls-21" cx="251.44" cy="289.56" rx="8.79" ry="5.99" transform="translate(-127.08 351.09) rotate(-58.27)"/><rect class="cls-22" x="243.96" y="265.47" width="18.29" height="51.77" transform="translate(-128.04 351.96) rotate(-58.06)"/><path class="cls-4" d="M252.3,289.23a3.83,3.83,0,0,1-5.7,5.12l-.07-.08a.58.58,0,0,1,.06-.82h0a.58.58,0,0,1,.82.05h0a2.67,2.67,0,0,0,4.15-3.35l-.14-.16a.59.59,0,0,1,0-.83.6.6,0,0,1,.83,0h0Z" transform="translate(0 -0.04)"/><path class="cls-4" d="M257.19,285a.58.58,0,0,1-.88.77h0a2.67,2.67,0,0,0-4,3.51.57.57,0,0,1,0,.8h0a.58.58,0,0,1-.82-.06h0a3.83,3.83,0,0,1,5.77-5Z" transform="translate(0 -0.04)"/><rect class="cls-4" x="246.41" y="294.81" width="2.35" height="1.14" rx="0.53" transform="translate(-133.86 350.57) rotate(-58.27)"/><rect class="cls-4" x="253.84" y="282.8" width="2.35" height="1.14" rx="0.53" transform="translate(-120.12 351.2) rotate(-58.27)"/><rect class="cls-14" x="215.32" y="269.68" width="54.58" height="21.08" transform="translate(-82.77 102.67) rotate(-20.5)"/><ellipse class="cls-23" cx="242.64" cy="280.28" rx="5.99" ry="8.79" transform="translate(-82.79 102.68) rotate(-20.5)"/><rect class="cls-24" x="216.78" y="271.08" width="51.68" height="18.26" transform="translate(-82.77 102.67) rotate(-20.5)"/><path class="cls-4" d="M242.84,279.41a3.83,3.83,0,1,1,.89,7.61h-.43a.59.59,0,0,1-.7-.44.57.57,0,0,1,.41-.68h.21a2.66,2.66,0,0,0-.32-5.32h0a.6.6,0,0,1-.59-.58.58.58,0,0,1,.52-.58Z" transform="translate(0 -0.04)"/><path class="cls-4" d="M242.45,272.92a.59.59,0,0,1,.62.55.58.58,0,0,1-.54.62h0a2.67,2.67,0,0,0,.31,5.32.58.58,0,1,1,.14,1.16h-.06a3.83,3.83,0,1,1-.63-7.64h.16Z" transform="translate(0 -0.04)"/><rect class="cls-4" x="244.3" y="285.72" width="1.14" height="2.35" rx="0.53" transform="translate(-84.97 103.88) rotate(-20.5)"/><rect class="cls-4" x="239.35" y="272.49" width="1.14" height="2.35" rx="0.53" transform="translate(-80.65 101.31) rotate(-20.5)"/><rect class="cls-14" x="221.2" y="272.14" width="21.08" height="54.58" transform="translate(-111.16 138.82) rotate(-27.17)"/><ellipse class="cls-25" cx="231.69" cy="299.48" rx="8.79" ry="5.99" transform="translate(-111.19 138.8) rotate(-27.17)"/><rect class="cls-26" x="222.64" y="273.59" width="18.26" height="51.68" transform="translate(-111.16 138.83) rotate(-27.17)"/><path class="cls-4" d="M232.62,299.62a3.84,3.84,0,0,1-7.54,1.41v0a.59.59,0,0,1,.47-.68.6.6,0,0,1,.68.48h0a2.67,2.67,0,0,0,5.25-.93.58.58,0,1,1,1.15-.21Z" transform="translate(0 -0.04)"/><path class="cls-4" d="M239,298.47a.58.58,0,1,1-1.15.21,2.66,2.66,0,0,0-5.24.94.58.58,0,1,1-1.15.21,3.83,3.83,0,0,1,7.54-1.35Z" transform="translate(0 -0.04)"/><rect class="cls-4" x="224.19" y="301.88" width="2.35" height="1.14" rx="0.53" transform="translate(-113.24 136.24) rotate(-27.17)"/><rect class="cls-4" x="236.77" y="295.43" width="2.35" height="1.14" rx="0.53" transform="translate(-108.91 141.27) rotate(-27.17)"/></g></g><g id="astronaut-right-palm"><g id="astronaut-right-palm-2"><path class="cls-1" d="M101.89,268.3l-24.61,3.18a2.88,2.88,0,0,1-3.2-2.47l-5.2-40.2A15,15,0,0,1,81.81,212h.07a15.5,15.5,0,0,1,17.36,13.38h0l5.14,39.77A2.85,2.85,0,0,1,101.89,268.3Z" transform="translate(0 -0.04)"/><circle class="cls-7" cx="91.2" cy="282.33" r="16.86"/><path class="cls-5" d="M73.5,256.89a4,4,0,0,0,4.67,3l.4-.07.29-.29c5.67-5.57,11.85-6.49,18.9-2.87l.37.2.42-.05a3.94,3.94,0,0,0,3.53-4.26,3.85,3.85,0,0,0-4.31-3,22.09,22.09,0,0,0-21,3.17A3.9,3.9,0,0,0,73.5,256.89Zm3.94-1.66h.33L78,255a19.43,19.43,0,0,1,19.18-2.9l.3.09h.33c.91-.13,1.63.33,1.71.82a1.31,1.31,0,0,1-1,1.23c-7.74-3.85-14.84-2.77-21.13,3.17a1.24,1.24,0,0,1-1.31-.84c-.11-.52.43-1.19,1.33-1.32Z" transform="translate(0 -0.04)"/></g><g id="beer"><path class="cls-27" d="M107.13,302l.23-.06c2.69-.07,5.29,7.94,5.85,18s-1.22,18.32-3.92,18.48-5.28-7.9-5.85-18C102.91,310.68,104.57,302.57,107.13,302Z" transform="translate(0 -0.04)"/><path class="cls-28" d="M63.32,304.31l9.51-.5,27.92-1.49,6.39-.33c-2.55.58-4.21,8.69-3.67,18.46.54,10.07,3.15,18.11,5.84,18l-38.48,2c.57-1.78.2-4.65-1.2-8.65-3.8-10.92,1.9-9-.91-18.61-1.91-6.51-4.14-8.19-5.36-8.58Z" transform="translate(0 -0.04)"/><polyline class="cls-29" points="70.8 340.38 65.26 340.69 63.34 304.54"/><path class="cls-30" d="M62.37,304.46a1.71,1.71,0,0,1,1,.12c1.22.39,3.45,2.07,5.36,8.58,2.81,9.59-2.89,7.7.91,18.61,1.4,4,1.76,6.85,1.2,8.66-1,3.09-4.63,3-10.22-.12-4.67-2.58-6.46-2.78-7-2.41a21.36,21.36,0,0,0-1.14-2.65c-3.48-7-2.53-5.87-2.25-5.68,0-.13-.55-1-2.72-4.59-6.18-10.32,5,1,1.77-10s0,0,7.1-9.71C58,295.6,62.37,304.46,62.37,304.46Z" transform="translate(0 -0.04)"/><line class="cls-31" x1="98.96" y1="329.77" x2="77.48" y2="330.92"/><line class="cls-31" x1="98.48" y1="320.67" x2="77" y2="321.81"/><line class="cls-31" x1="98.01" y1="311.91" x2="76.53" y2="313.04"/><path class="cls-31" d="M80.23,294.81l12.18-.64a8,8,0,0,1,8.32,7.5,2.51,2.51,0,0,1,0,.67l-27.89,1.47a1.9,1.9,0,0,1-.09-.67,7.88,7.88,0,0,1,7.41-8.32h.07Z" transform="translate(0 -0.04)"/></g><g id="payment"><rect class="cls-32" x="34.86" y="277.74" width="68.26" height="41.13" rx="4.91" transform="translate(-27.31 7.62) rotate(-5.31)"/><rect class="cls-33" x="43.62" y="285.55" width="14.05" height="28.92" transform="translate(-27.55 5.93) rotate(-5.31)"/><rect class="cls-34" x="66.73" y="308.44" width="3.79" height="6.89" rx="1.32" transform="translate(-28.57 7.65) rotate(-5.31)"/><rect class="cls-34" x="65.86" y="299.06" width="3.79" height="6.89" rx="1.32" transform="translate(-27.71 7.52) rotate(-5.31)"/><rect class="cls-34" x="64.98" y="289.69" width="3.79" height="6.89" rx="1.32" transform="translate(-26.84 7.4) rotate(-5.31)"/><rect class="cls-34" x="64.15" y="280.61" width="3.79" height="6.89" rx="1.32" transform="translate(-26.01 7.29) rotate(-5.31)"/><rect class="cls-34" x="74.9" y="307.69" width="3.79" height="6.89" rx="1.32" transform="translate(-28.47 8.4) rotate(-5.31)"/><rect class="cls-34" x="74.02" y="298.31" width="3.79" height="6.89" rx="1.32" transform="translate(-27.6 8.28) rotate(-5.31)"/><rect class="cls-34" x="73.15" y="288.93" width="3.79" height="6.89" rx="1.32" transform="translate(-26.74 8.16) rotate(-5.31)"/><rect class="cls-34" x="72.31" y="279.85" width="3.79" height="6.89" rx="1.32" transform="translate(-25.9 8.04) rotate(-5.31)"/><rect class="cls-34" x="82.64" y="306.98" width="3.79" height="6.89" rx="1.32" transform="translate(-28.37 9.11) rotate(-5.31)"/><rect class="cls-34" x="81.77" y="297.6" width="3.79" height="6.89" rx="1.32" transform="translate(-27.5 8.99) rotate(-5.31)"/><rect class="cls-34" x="80.9" y="288.22" width="3.79" height="6.89" rx="1.32" transform="translate(-26.64 8.87) rotate(-5.31)"/><rect class="cls-34" x="80.06" y="279.12" width="3.79" height="6.89" rx="1.32" transform="translate(-25.8 8.75) rotate(-5.31)"/><rect class="cls-34" x="37.73" y="288.27" width="2.38" height="25.43" rx="0.72" transform="translate(-27.69 4.85) rotate(-5.31)"/><rect class="cls-35" x="90.34" y="283.31" width="5.5" height="10" rx="1.41" transform="translate(-26.29 9.81) rotate(-5.31)"/><rect class="cls-36" x="91.78" y="298.69" width="5.5" height="10" rx="1.41" transform="translate(-27.7 10.01) rotate(-5.31)"/><path class="cls-7" d="M.52,289.67c-.68,5.91,19.93,1.2,19.93,1.2l17.37-1.62L40,312.17,22.6,313.81s-21.4,2.57-21.5-6.47Z" transform="translate(0 -0.04)"/><path class="cls-37" d="M93.24,289.39l1.08-1a.43.43,0,0,1,.61,0h0a.43.43,0,0,1,0,.6l-1.08,1a.41.41,0,0,1-.59,0h0A.43.43,0,0,1,93.24,289.39Z" transform="translate(0 -0.04)"/><path class="cls-37" d="M91.36,286.43h0a.42.42,0,0,1,.58-.11h0l2.9,1.95a.43.43,0,0,1,.12.6h0a.43.43,0,0,1-.6.12h0l-2.9-2A.43.43,0,0,1,91.36,286.43Z" transform="translate(0 -0.04)"/><path class="cls-38" d="M92.93,302.28h0a.45.45,0,0,1,.61,0l2.6,2.33a.45.45,0,0,1,0,.61h0a.43.43,0,0,1-.61,0h0L93,302.89a.43.43,0,0,1-.09-.6Z" transform="translate(0 -0.04)"/><path class="cls-38" d="M93.12,304.91l2.08-2.81a.43.43,0,0,1,.6-.09h0a.43.43,0,0,1,.09.6l-2.08,2.81a.43.43,0,0,1-.6.09h0A.43.43,0,0,1,93.12,304.91Z" transform="translate(0 -0.04)"/><path class="cls-12" d="M44.72,292.88" transform="translate(0 -0.04)"/><path class="cls-39" d="M7.67,310.58s2.78-1.29-.14-4.2c0,0,3.74-1.38.67-4.8,0,0,3.52-2.53.05-4.68,0,0,2.49-.37.34-1.52" transform="translate(0 -0.04)"/><path class="cls-39" d="M13.6,311s2.78-1.29-.14-4.21c0,0,3.71-1.37.67-4.79,0,0,3.52-2.53,0-4.68,0,0,2.5-.37.34-1.52" transform="translate(0 -0.04)"/><path class="cls-39" d="M18.76,311s2.78-1.29-.14-4.2c0,0,3.74-1.38.67-4.8,0,0,3.52-2.53,0-4.68,0,0,2.5-.37.34-1.52" transform="translate(0 -0.04)"/><path class="cls-39" d="M24.64,309.86s2.78-1.29-.14-4.2c0,0,3.74-1.39.67-4.8,0,0,3.52-2.53,0-4.69,0,0,2.49-.36.34-1.52" transform="translate(0 -0.04)"/><path class="cls-39" d="M29.23,308.81s2.78-1.28-.14-4.2c0,0,3.71-1.38.67-4.8,0,0,3.52-2.53,0-4.68,0,0,2.49-.36.34-1.52" transform="translate(0 -0.04)"/><path class="cls-5" d="M54.76,306.28a4.59,4.59,0,0,1,.49,1.78,3.21,3.21,0,0,1-2.68,3.66h-.46a3.42,3.42,0,0,1-3.89-2.88h0a2.16,2.16,0,0,1,0-.36,3.7,3.7,0,0,1,.15-1.65l.74.14a3.2,3.2,0,0,0-.15,1.41,2.55,2.55,0,0,0,2.66,2.44h0l.38-.05a2.48,2.48,0,0,0,2.53-2.43h0a3.38,3.38,0,0,0,0-.45,3.7,3.7,0,0,0-.41-1.41Z" transform="translate(0 -0.04)"/><path class="cls-5" d="M52.63,304.22l2.21.52.08.91-7-1.71-.1-1.06,6.61-3,.09,1-2.08.93Zm-.9-2.18-1.91.85c-.43.2-.82.33-1.21.47h0c.41.06.84.14,1.27.23l2,.49Z" transform="translate(0 -0.04)"/><path class="cls-5" d="M47.56,299.54a9.6,9.6,0,0,1-.3-1.67,2.81,2.81,0,0,1,.37-2,1.71,1.71,0,0,1,1.25-.66,1.82,1.82,0,0,1,1.86,1.12h0A1.73,1.73,0,0,1,52,295.2a10.53,10.53,0,0,0,1.82-.7l.09.91a9.07,9.07,0,0,1-1.59.63c-.94.29-1.24.69-1.2,1.49l.07.81,3-.27.08.88Zm3-1.17-.08-.9c-.09-1-.67-1.49-1.45-1.42s-1.2.76-1.13,1.69a3.64,3.64,0,0,0,.17.86Z" transform="translate(0 -0.04)"/><path class="cls-5" d="M47,294.1a13.26,13.26,0,0,1-.31-1.87,4,4,0,0,1,.59-2.84,3.15,3.15,0,0,1,2.36-1.19,3.63,3.63,0,0,1,2.75.74,4.28,4.28,0,0,1,1.27,2.93,14.44,14.44,0,0,1,.06,1.61Zm6-1.45a4.41,4.41,0,0,0,0-.89,2.64,2.64,0,0,0-2.58-2.7h0a2.75,2.75,0,0,0-.57.05,2.44,2.44,0,0,0-2.44,2.44h0a3.43,3.43,0,0,0,.07.56,4.29,4.29,0,0,0,.18,1Z" transform="translate(0 -0.04)"/></g></g><g id="astronaut-right-arm"><g id="astronaut-right-arm-2"><rect class="cls-40" x="60.21" y="168.95" width="60.12" height="30.53" rx="2.86" transform="translate(-111.14 223.16) rotate(-74.85)"/><path class="cls-7" d="M98.53,216a17.55,17.55,0,0,1-.6,4.5,16.55,16.55,0,0,1-4.62,7.77,16.85,16.85,0,1,1-8.59-28.74,9.12,9.12,0,0,1,1.36.28A16.87,16.87,0,0,1,98.53,216Z" transform="translate(0 -0.04)"/><path class="cls-5" d="M93.31,228.27a16.81,16.81,0,0,1-16.07,4.08,16.41,16.41,0,0,1-8-4.93l6.26-7,1-1.13c.16-.19.32-.34.48-.5l.28-.28a9.41,9.41,0,0,1,3.87-2.11,8.67,8.67,0,0,1,2.68-.36,9.75,9.75,0,0,1,6.54,2.48,9.25,9.25,0,0,1,1.83,2.21A10,10,0,0,1,93.31,228.27Z" transform="translate(0 -0.04)"/></g><circle class="cls-7" cx="100.6" cy="147.38" r="21.94"/><polyline class="cls-39" points="95.98 152.47 97.59 146.63 98.81 142.29 105.9 144.26"/><line class="cls-39" x1="101.15" y1="147.61" x2="97.6" y2="146.63"/></g><g id="astronaut-left-arm"><g id="astronaut-left-arm-2"><rect class="cls-41" x="212.56" y="155.66" width="30.53" height="60.12" rx="2.86" transform="translate(-52.22 96.38) rotate(-21.5)"/><path class="cls-7" d="M255.73,218.36v.12a15.9,15.9,0,0,1-2,4.86,16.82,16.82,0,0,1-18.25,7.84,15.94,15.94,0,0,1-4.12-1.57,16.71,16.71,0,0,1-8.92-16.16,15.83,15.83,0,0,1,.37-2.47,16.85,16.85,0,1,1,32.89,7.38h0Z" transform="translate(0 -0.04)"/><path class="cls-5" d="M253.73,223.35a16.83,16.83,0,0,1-18.22,7.83,15.94,15.94,0,0,1-4.12-1.57A9.8,9.8,0,0,1,238,212.93a9.46,9.46,0,0,1,4.47.89,10,10,0,0,1,2.52,1.62Z" transform="translate(0 -0.04)"/></g><circle class="cls-7" cx="213.26" cy="148.72" r="21.94"/><path class="cls-39" d="M213.57,153l-3.44-6.87c1.41-1.33,4.21-2.71,5.16-.43,1.1,2.66-2.25,3.41-3.09,3.7-.31.32,4.55-1.77,5.63-1.61C220.5,148.13,219.49,151.81,213.57,153Z" transform="translate(0 -0.04)"/></g></svg>