<svg id="astronaut" xmlns="http://www.w3.org/2000/svg" xmlns:xlink="http://www.w3.org/1999/xlink" viewBox="0 0 438.65 400.65"><defs><style>.astronaut-1,.astronaut-40,.astronaut-41{fill:#c6c6c6;}.astronaut-1,.astronaut-11,.astronaut-2,.astronaut-3,.astronaut-32,.astronaut-33,.astronaut-34,.astronaut-35,.astronaut-36,.astronaut-39,.astronaut-40,.astronaut-41,.astronaut-6,.astronaut-7,.astronaut-8,.astronaut-9{stroke:#1d1d1b;}.astronaut-1,.astronaut-11,.astronaut-2,.astronaut-27,.astronaut-28,.astronaut-29,.astronaut-3,.astronaut-30,.astronaut-31,.astronaut-39,.astronaut-6,.astronaut-7,.astronaut-8{stroke-miterlimit:10;}.astronaut-2,.astronaut-5{fill:#1d1d1b;}.astronaut-2,.astronaut-6{stroke-width:0.25px;}.astronaut-10,.astronaut-11,.astronaut-16,.astronaut-18,.astronaut-20,.astronaut-22,.astronaut-24,.astronaut-26,.astronaut-29,.astronaut-3,.astronaut-31,.astronaut-39{fill:none;}.astronaut-30,.astronaut-33,.astronaut-4,.astronaut-6,.astronaut-7,.astronaut-8,.astronaut-9{fill:#fff;}.astronaut-11,.astronaut-8{stroke-width:0.5px;}.astronaut-9{stroke-miterlimit:10;stroke-width:0.5px;}.astronaut-12{fill:#706f6f;}.astronaut-13,.astronaut-27{fill:#f39200;}.astronaut-14{fill:#359c37;}.astronaut-15,.astronaut-17,.astronaut-19,.astronaut-21,.astronaut-23,.astronaut-25{fill:#063;}.astronaut-15,.astronaut-16,.astronaut-17,.astronaut-18,.astronaut-19,.astronaut-20,.astronaut-21,.astronaut-22,.astronaut-23,.astronaut-24,.astronaut-25,.astronaut-26{stroke:#063;}.astronaut-15,.astronaut-16{stroke-miterlimit:10;}.astronaut-15{stroke-width:0.75px;}.astronaut-16{stroke-width:2px;}.astronaut-17{stroke-miterlimit:10.02;stroke-width:0.75px;}.astronaut-18{stroke-miterlimit:10;stroke-width:2px;}.astronaut-19,.astronaut-20{stroke-miterlimit:10;}.astronaut-19{stroke-width:0.75px;}.astronaut-20{stroke-width:2px;}.astronaut-21{stroke-miterlimit:10;stroke-width:0.75px;}.astronaut-22{stroke-miterlimit:10.02;stroke-width:2px;}.astronaut-23,.astronaut-24{stroke-miterlimit:10;}.astronaut-23{stroke-width:0.75px;}.astronaut-24{stroke-width:2px;}.astronaut-25,.astronaut-26{stroke-miterlimit:10;}.astronaut-25{stroke-width:0.75px;}.astronaut-26{stroke-width:2px;}.astronaut-27,.astronaut-28,.astronaut-29,.astronaut-30,.astronaut-31{stroke:#fff;}.astronaut-27,.astronaut-28,.astronaut-29,.astronaut-31,.astronaut-39{stroke-width:0.75px;}.astronaut-28{fill:url(#linear-gradient);}.astronaut-31{stroke-linecap:round;}.astronaut-32{fill:#9d9d9c;}.astronaut-32,.astronaut-33,.astronaut-34,.astronaut-35,.astronaut-36{stroke-miterlimit:10;}.astronaut-34{fill:#3c3c3b;}.astronaut-35{fill:#009640;}.astronaut-36{fill:#e30613;}.astronaut-37{fill:#003510;}.astronaut-38{fill:#450500;}.astronaut-40{stroke-miterlimit:10;}.astronaut-41{stroke-miterlimit:10;}</style><linearGradient id="linear-gradient" x1="-744.59" y1="-605.75" x2="-737.14" y2="-545.48" gradientTransform="matrix(-0.22, -0.98, -0.98, 0.22, -644.68, -277.7)" gradientUnits="userSpaceOnUse"><stop offset="0.2" stop-color="#f9b233"/><stop offset="0.29" stop-color="#f7ba4d"/><stop offset="0.54" stop-color="#f3d091"/><stop offset="0.75" stop-color="#f0e0c3"/><stop offset="0.91" stop-color="#eee9e1"/><stop offset="1" stop-color="#ededed"/></linearGradient></defs><g id="astronaut-body"><path class="astronaut-1" d="M219.47,84.23V52a9.68,9.68,0,0,1,3.68-7.54A69.45,69.45,0,0,0,93.79,45a10,10,0,0,1,2.55,1.83,9.47,9.47,0,0,1,2.83,6.79V85.83a9.71,9.71,0,0,1-5.5,8.71,69.47,69.47,0,0,0,130.55-2A9.6,9.6,0,0,1,219.47,84.23Zm-60.91,11.1c-27.55,0-49.87,13-49.87-16.07s22.31-52.5,49.87-52.5S208.4,50.28,208.4,79.3,186.11,95.33,158.56,95.33Z" transform="translate(0 -0.04)"/><path class="astronaut-2" d="M99.16,53.48V85.76a9.71,9.71,0,0,1-5.5,8.71,69.38,69.38,0,0,1,.13-49.65,10,10,0,0,1,2.54,1.83A9.47,9.47,0,0,1,99.16,53.48Z" transform="translate(0 -0.04)"/><path class="astronaut-2" d="M228,70a68.66,68.66,0,0,1-3.78,22.59,9.63,9.63,0,0,1-4.74-8.27V52a9.64,9.64,0,0,1,3.67-7.54A69.35,69.35,0,0,1,228,70Z" transform="translate(0 -0.04)"/><path class="astronaut-1" d="M210.86,396.05l-36.1,4.09a8.64,8.64,0,0,1-9.53-7.58l-4-35.28-2.45,34.87a8.43,8.43,0,0,1-9,7.8h0l-36.22-2.47a8.6,8.6,0,0,1-8-9.16h0l8-114.2a14.59,14.59,0,0,1,0-1.62v-3.3l-.69-139.58H114a69.35,69.35,0,0,0,88.86-.25h.72l1.48,139.39v1.51a2,2,0,0,0,.09.6L218.3,386.76a8.43,8.43,0,0,1-7.41,9.33Z" transform="translate(0 -0.04)"/><line class="astronaut-3" x1="203.5" y1="129.33" x2="202.78" y2="129.33"/><line class="astronaut-3" x1="113.92" y1="129.58" x2="112.98" y2="129.58"/><path class="astronaut-4" d="M168.19,352.3c14.22,6.32,27.42,5.84,39.47-2.19a4.71,4.71,0,0,0,4.41-5h0a4.67,4.67,0,0,0-4.89-4.44h0q-19.1,13.31-39.47,2.19a4.69,4.69,0,0,0-4.41,4.95v.05h0A4.69,4.69,0,0,0,168.19,352.3Z" transform="translate(0 -0.04)"/><path class="astronaut-5" d="M167.9,353.88a6.28,6.28,0,0,1-.28-12.54H168l.38.2c13.16,7.18,25.55,6.5,37.88-2.1l.36-.24H207a6.28,6.28,0,0,1,1.09,12.49A38.49,38.49,0,0,1,189,358.18,46.4,46.4,0,0,1,167.9,353.88Zm-.5-9.36a3.13,3.13,0,0,0,.71,6.21h.36l.33.15c14.11,6.26,26.54,5.58,38-2.07l.35-.23h.41a3.13,3.13,0,0,0,0-6.24c-12.9,8.79-26.43,9.54-40.21,2.14Z" transform="translate(0 -0.04)"/><path class="astronaut-4" d="M169,367.1c14.22,6.32,27.42,5.84,39.47-2.19a4.71,4.71,0,0,0,4.41-5h0a4.67,4.67,0,0,0-4.89-4.44h0q-19.1,13.3-39.47,2.19a4.71,4.71,0,0,0-4.41,5h0A4.69,4.69,0,0,0,169,367.1Z" transform="translate(0 -0.04)"/><path class="astronaut-5" d="M168.68,368.68a6.28,6.28,0,0,1-.28-12.54h.42l.38.2c13.16,7.18,25.55,6.5,37.88-2.1l.36-.24h.42A6.28,6.28,0,0,1,209,366.48,38.74,38.74,0,0,1,189.83,373,46.2,46.2,0,0,1,168.68,368.68Zm-.5-9.35a3.13,3.13,0,0,0,.71,6.2h.36l.33.15c14.11,6.26,26.54,5.58,38-2.07l.35-.22h.41a3.13,3.13,0,0,0,0-6.24c-12.85,8.79-26.33,9.53-40.16,2.18Z" transform="translate(0 -0.04)"/><path class="astronaut-4" d="M166.88,337.53c14.22,6.31,27.41,5.84,39.46-2.19a4.7,4.7,0,0,0,4.42-5v0h0a4.68,4.68,0,0,0-4.91-4.44h0q-19.09,13.29-39.47,2.19a4.71,4.71,0,0,0-4.41,5h0A4.7,4.7,0,0,0,166.88,337.53Z" transform="translate(0 -0.04)"/><path class="astronaut-5" d="M166.56,339.11a6.28,6.28,0,0,1-.28-12.54h.43l.38.21c13.16,7.18,25.55,6.5,37.88-2.1l.35-.24h.43a6.28,6.28,0,0,1,1.09,12.5,38.62,38.62,0,0,1-19.17,6.49A46.3,46.3,0,0,1,166.56,339.11Zm-.5-9.36a3.13,3.13,0,0,0,.72,6.21h.36l.33.14c14.1,6.27,26.53,5.6,38-2.06l.34-.23h.41a3.13,3.13,0,0,0,.06-6.24c-12.89,8.79-26.42,9.54-40.2,2.18Z" transform="translate(0 -0.04)"/><polygon class="astronaut-6" points="166.33 334.19 165.04 333.88 164.64 332.58 165.55 331.58 166.85 331.88 167.23 333.19 166.33 334.19"/><polygon class="astronaut-6" points="167.64 348.79 166.33 348.48 165.95 347.18 166.85 346.18 168.14 346.48 168.54 347.79 167.64 348.79"/><polygon class="astronaut-6" points="168.92 363.84 167.64 363.54 167.23 362.23 168.14 361.23 169.45 361.54 169.83 362.84 168.92 363.84"/><polygon class="astronaut-6" points="206.76 332.33 205.47 332.02 205.07 330.72 205.98 329.72 207.27 330.02 207.67 331.33 206.76 332.33"/><polygon class="astronaut-6" points="208.63 346.48 207.32 346.18 206.94 344.87 207.83 343.87 209.14 344.18 209.52 345.48 208.63 346.48"/><polygon class="astronaut-6" points="209.64 361.68 208.33 361.37 207.95 360.07 208.85 359.07 210.14 359.37 210.54 360.68 209.64 361.68"/><polygon class="astronaut-6" points="188.08 338.85 186.79 338.54 186.39 337.24 187.29 336.24 188.6 336.54 188.98 337.85 188.08 338.85"/><polygon class="astronaut-6" points="188.86 353.2 187.57 352.9 187.17 351.59 188.07 350.59 189.38 350.9 189.76 352.2 188.86 353.2"/><polygon class="astronaut-6" points="190.42 368.01 189.11 367.7 188.72 366.4 189.63 365.4 190.92 365.7 191.32 367.01 190.42 368.01"/><rect class="astronaut-5" x="120.78" y="294.19" width="34.12" height="20.61" rx="3.28"/><path class="astronaut-4" d="M154.61,350c-13.61,6.77-26.61,7-38.92,0a4.59,4.59,0,0,1-4.59-4.52h0a4.58,4.58,0,0,1,4.59-4.52q19.47,11.76,38.92,0a4.56,4.56,0,0,1,4.6,4.52h0A4.58,4.58,0,0,1,154.61,350Z" transform="translate(0 -0.04)"/><path class="astronaut-5" d="M134.46,356.68a38.61,38.61,0,0,1-19.19-5.2,6,6,0,0,1,.42-12h.42l.36.22c12.58,7.59,24.79,7.59,37.36,0l.36-.22h.42a6,6,0,1,1,.38,12h0A46.48,46.48,0,0,1,134.46,356.68Zm-19.14-14.2a3,3,0,0,0,.37,6h.41l.35.2c11.68,6.72,24,6.71,37.49,0l.32-.16h.35a3,3,0,0,0,.38-6h0c-13.16,7.76-26.51,7.76-39.67,0Z" transform="translate(0 -0.04)"/><path class="astronaut-4" d="M154.61,364.22c-13.65,6.82-26.65,7.07-38.92,0a4.57,4.57,0,0,1-4.59-4.46h0a4.56,4.56,0,0,1,4.59-4.52q19.47,11.75,38.92,0a4.56,4.56,0,0,1,4.6,4.52h0A4.59,4.59,0,0,1,154.61,364.22Z" transform="translate(0 -0.04)"/><path class="astronaut-5" d="M134.46,371a38.61,38.61,0,0,1-19.19-5.2,6,6,0,0,1,.42-12h.42l.36.22c12.58,7.59,24.79,7.59,37.36,0l.36-.22h.42a6,6,0,1,1,.38,12h0A46.48,46.48,0,0,1,134.46,371Zm-19.14-14.2a3,3,0,1,0,.37,6h.41l.35.2c11.68,6.73,24,6.72,37.49,0l.32-.16h.35a3,3,0,0,0,.38-6c-13.16,7.66-26.51,7.66-39.67-.06Z" transform="translate(0 -0.04)"/><path class="astronaut-4" d="M155.14,335.76c-13.65,6.81-26.65,7.06-38.92,0a4.58,4.58,0,0,1-4.59-4.52h0a4.55,4.55,0,0,1,4.59-4.51h0q19.47,11.75,38.92,0a4.57,4.57,0,0,1,4.6,4.51h0A4.58,4.58,0,0,1,155.14,335.76Z" transform="translate(0 -0.04)"/><path class="astronaut-5" d="M135,342.48a38.62,38.62,0,0,1-19.19-5.21,6,6,0,1,1,.42-12h.42l.36.22c12.57,7.58,24.79,7.58,37.36,0l.36-.22h.42a6,6,0,1,1,.38,12h0A46.62,46.62,0,0,1,135,342.48Zm-19.15-14.2a3,3,0,0,0,.38,6h.41l.35.2c11.69,6.73,24,6.72,37.49,0l.32-.16h.35a3,3,0,0,0,.38-6C142.36,336,129,336,115.85,328.25Z" transform="translate(0 -0.04)"/><polygon class="astronaut-6" points="116.79 332.66 115.51 332.37 115.12 331.12 116.01 330.16 117.29 330.45 117.68 331.7 116.79 332.66"/><polygon class="astronaut-6" points="136.07 337.67 134.79 337.38 134.42 336.13 135.3 335.17 136.58 335.46 136.97 336.72 136.07 337.67"/><polygon class="astronaut-6" points="155.44 332.66 154.16 332.37 153.77 331.12 154.67 330.16 155.95 330.45 156.32 331.7 155.44 332.66"/><polygon class="astronaut-6" points="115.92 346.83 114.64 346.54 114.26 345.29 115.15 344.33 116.43 344.62 116.81 345.87 115.92 346.83"/><polygon class="astronaut-6" points="115.51 360.85 114.23 360.56 113.84 359.31 114.73 358.35 116.01 358.64 116.4 359.89 115.51 360.85"/><polygon class="astronaut-6" points="155.44 346.83 154.16 346.54 153.77 345.29 154.67 344.33 155.95 344.62 156.32 345.87 155.44 346.83"/><polygon class="astronaut-6" points="155.44 360.85 154.16 360.56 153.77 359.31 154.67 358.35 155.95 358.64 156.32 359.89 155.44 360.85"/><polygon class="astronaut-6" points="136.07 352.38 134.79 352.09 134.42 350.83 135.3 349.87 136.58 350.16 136.97 351.42 136.07 352.38"/><polygon class="astronaut-6" points="135.54 366.31 134.27 366.02 133.89 364.76 134.77 363.8 136.05 364.09 136.45 365.35 135.54 366.31"/><rect class="astronaut-7" x="132.45" y="218.38" width="33.97" height="26.25" rx="2.41"/><path class="astronaut-7" d="M141.42,165.87a58.43,58.43,0,0,1,0,36.92h-1.7a16.31,16.31,0,0,1-16.26-16.26v-4.4a16.31,16.31,0,0,1,16.26-16.26Z" transform="translate(0 -0.04)"/><path class="astronaut-7" d="M188.68,182.13v4.4a16.32,16.32,0,0,1-16.26,16.23H149.63c-5.25-12.53-5.45-24.84,0-36.92h22.79A16.31,16.31,0,0,1,188.68,182.13Z" transform="translate(0 -0.04)"/><rect class="astronaut-8" x="155.94" y="171.73" width="4.06" height="4.06" rx="0.65"/><rect class="astronaut-9" x="170.87" y="171.76" width="4.06" height="4.06" rx="0.65" transform="translate(-60.74 247.96) rotate(-62.77)"/><rect class="astronaut-9" x="155.92" y="182.25" width="4.06" height="4.06" rx="0.65" transform="translate(-78.18 240.36) rotate(-62.77)"/><rect class="astronaut-9" x="170.78" y="182.26" width="4.06" height="4.06" rx="0.65" transform="translate(-70.13 253.58) rotate(-62.77)"/><rect class="astronaut-9" x="155.93" y="192.76" width="4.06" height="4.06" rx="0.65" transform="translate(-87.53 246.08) rotate(-62.77)"/><rect class="astronaut-9" x="170.88" y="192.77" width="4.06" height="4.06" rx="0.65" transform="translate(-79.43 259.37) rotate(-62.77)"/><path class="astronaut-5" d="M140.49,193.87l-.51-.6-4,3.49-2.24-4.59,3.09-2.2,1.51,3.46.72-.32.72-.31-1.63-3.74,2.86-2-.44-.62-.47-.63-2.58,1.82-2.08-4.87,3.08-2.32.51,1.16.72-.28.72-.32-.66-1.51,1.2-.88-.44-.63-.47-.63-.92.66L137,173l3.21-2.39-.47-.62-.47-.63-2.93,2.07-.78-1.82-1.45.63.94,2.17L132,174.76l-.6-1.35-.72.32L130,174l.72,1.67-3.17,2.36.44.66h0l.44.63,2.92-2.14,2.2,5.06-3.27,2.42-1.6-3.33-.72.34-.7.35,1.73,3.62-2,1.44.47.63.44.63,1.73-1.29,2.17,4.53-2.29,1.6.44.63.47.66,2-1.48,2.27,4.75-.35.32.5.59.51.6,5.72-4.81Zm-8-17.61L135.6,174l2.2,5.06-3.11,2.29Zm-1.7,9.88,3.21-2.38,2.08,4.74L133,190.7Z" transform="translate(0 -0.04)"/><line class="astronaut-10" x1="138.98" y1="193.9" x2="138.95" y2="193.9"/><path class="astronaut-6" d="M184.56,185.48c.3,3.33-.76,4.93-2.24,4.28,0,0-1.1-1.54,0-2.39A12.67,12.67,0,0,1,184.56,185.48Z" transform="translate(0 -0.04)"/><path class="astronaut-6" d="M182.29,179.21c1.15-.4,2,.32,1.86,2.24a6.86,6.86,0,0,0-1.07.31C181.73,182,182.29,179.21,182.29,179.21Z" transform="translate(0 -0.04)"/><path class="astronaut-2" d="M160,233.27c-.66.12-1.32.22-2,.28,0,0-1.17.91,0,2.55-1.26,0-2.27-2.36-2.27-5.29s1-5.28,2.27-5.28c-1.57,2.08,0,3.14,0,3.14h2.07c27.67-.26,39.59-34.34,34.56-41.7-3.37-4.93-7.58-3.3-10.09-1.54a12.67,12.67,0,0,0-2.24,1.89c-1.1.85,0,2.39,0,2.39-1.25,0-2.26-2.36-2.26-5.25s1-5.29,2.26-5.29c0,0-.56,2.8.79,2.55a6.86,6.86,0,0,1,1.07-.31c3.43-1,14-3,14.78,7.73C199.87,201.82,191,228.76,160,233.27Z" transform="translate(0 -0.04)"/><path class="astronaut-6" d="M158,233.55c.66-.06,1.32-.16,2-.28.58,2.62-.52,3.41-2,2.83C156.82,234.48,158,233.55,158,233.55Z" transform="translate(0 -0.04)"/><path class="astronaut-6" d="M158,225.53c1.45-.35,2.76.59,2.07,3.18H158C156.93,228.71,156.42,227.61,158,225.53Z" transform="translate(0 -0.04)"/><path class="astronaut-4" d="M161.32,228.67a4.42,4.42,0,0,0-.57,2.22,4.68,4.68,0,0,0,.9,2.11,2.84,2.84,0,0,1-1.12-.75,2.28,2.28,0,0,1,.2-3.21A2.43,2.43,0,0,1,161.32,228.67Z" transform="translate(0 -0.04)"/><path class="astronaut-4" d="M166.75,228c-.24.85-.63,1.68-.44,2.27s.94.87,1.76,1.23a2.93,2.93,0,0,1-1.38,0,1.58,1.58,0,0,1-1.14-1.06A2.48,2.48,0,0,1,166.75,228Z" transform="translate(0 -0.04)"/><path class="astronaut-4" d="M173.34,225.7c-.18.83-.53,1.68-.29,2.18s1,.61,1.87.84a3.28,3.28,0,0,1-1.31.28,1.55,1.55,0,0,1-1.29-.83,1.89,1.89,0,0,1,.16-1.47A2.67,2.67,0,0,1,173.34,225.7Z" transform="translate(0 -0.04)"/><path class="astronaut-4" d="M179.72,221.76a6.14,6.14,0,0,0-.32,2.29c.07.53,1,.64,1.86.83a2.8,2.8,0,0,1-1.33.31,1.42,1.42,0,0,1-1.29-.92,2.15,2.15,0,0,1,.23-1.47A2.87,2.87,0,0,1,179.72,221.76Z" transform="translate(0 -0.04)"/><path class="astronaut-4" d="M184.34,217.48c-.11.9-.31,2,.17,2.21a10.75,10.75,0,0,0,2.47.13,4.45,4.45,0,0,1-1.29.64,2.16,2.16,0,0,1-1.6-.11,1.44,1.44,0,0,1-.48-1.61A3.14,3.14,0,0,1,184.34,217.48Z" transform="translate(0 -0.04)"/><path class="astronaut-4" d="M188.06,212.88c0,.92.08,2,.71,2a9.2,9.2,0,0,0,2.55-.48,3.35,3.35,0,0,1-2.71,1.25,1.3,1.3,0,0,1-1-1.37A2.8,2.8,0,0,1,188.06,212.88Z" transform="translate(0 -0.04)"/><path class="astronaut-4" d="M192.09,206a10.17,10.17,0,0,0,.19,1.65c.08.52.28,1,.52.89a2.8,2.8,0,0,0,1.25-.6c.45-.3.9-.65,1.39-1a5.82,5.82,0,0,1-1,1.41,2.71,2.71,0,0,1-1.65.93,1,1,0,0,1-1-.7,2.17,2.17,0,0,1-.16-.94A4.47,4.47,0,0,1,192.09,206Z" transform="translate(0 -0.04)"/><path class="astronaut-4" d="M195.16,197c.14.51.27,1,.41,1.48s.39.9.55.87a2.84,2.84,0,0,0,1-.6c.33-.31.75-.67,1.18-1a5.06,5.06,0,0,1-.74,1.42,2,2,0,0,1-1.53,1,1.55,1.55,0,0,1-1.06-1.54A4.3,4.3,0,0,1,195.16,197Z" transform="translate(0 -0.04)"/><path class="astronaut-4" d="M195.56,189.76c.32.31.65.61,1,.9s.7.45.9.34a2.45,2.45,0,0,0,.71-.76l.67-1.21a3.93,3.93,0,0,1-.12,1.45,1.79,1.79,0,0,1-1,1.28,1.6,1.6,0,0,1-1.55-.68A3.26,3.26,0,0,1,195.56,189.76Z" transform="translate(0 -0.04)"/><path class="astronaut-4" d="M193.7,185.84c1,0,2-.23,2-1a11.3,11.3,0,0,0-.25-2.72,3.69,3.69,0,0,1,1,2.86,1.5,1.5,0,0,1-1.24,1.21A2.36,2.36,0,0,1,193.7,185.84Z" transform="translate(0 -0.04)"/><path class="astronaut-4" d="M186.89,184.2l1.2-1c.37-.3.71-.77.6-.91a3.38,3.38,0,0,0-1-.67c-.44-.18-1-.38-1.47-.61a5.7,5.7,0,0,1,1.65,0,2,2,0,0,1,1.58,1,1.66,1.66,0,0,1-1,1.64A4.76,4.76,0,0,1,186.89,184.2Z" transform="translate(0 -0.04)"/><path class="astronaut-11" d="M148.56,224.33c-8.94,4.63-10.41,9.56,0,14.45a2.82,2.82,0,0,1-2.8,2.8h0a2.82,2.82,0,0,1-2.76-2.82c8.94-5,8.72-9.8,0-14.45a2.81,2.81,0,0,1,2.79-2.8h0A2.81,2.81,0,0,1,148.56,224.33Z" transform="translate(0 -0.04)"/><polygon class="astronaut-6" points="146.02 232.81 144.7 232.5 144.29 231.2 145.23 230.2 146.55 230.5 146.95 231.81 146.02 232.81"/><rect class="astronaut-5" x="167.52" y="294.19" width="34.12" height="20.61" rx="3.28"/><polygon class="astronaut-5" points="160.73 357.21 161.23 296.76 161.73 357.21 160.73 357.21"/></g><g id="astronaut-left-palm"><g id="astronaut-left-palm-2"><g id="astronaut-left-palm-2-2"><path class="astronaut-1" d="M245.25,271.37l-30-5.86,8.41-43A14.61,14.61,0,0,1,240.78,211h0a15.93,15.93,0,0,1,12.57,18.68Z" transform="translate(0 -0.04)"/><circle class="astronaut-7" cx="228.09" cy="279.5" r="16.86"/><path class="astronaut-5" d="M222.27,252.24l.43.13.4-.2c7.7-2.79,13.94-1.08,19,5.35l.32.36.38.12a3.81,3.81,0,0,0,3-7,3,3,0,0,0-.58-.19,22.8,22.8,0,0,0-21.25-6,4,4,0,0,0-4.81,2.6,4.08,4.08,0,0,0,3.12,4.84h0Zm-.54-4.07a1.43,1.43,0,0,1,1.84-.64l.35.07.33-.07A20.17,20.17,0,0,1,243.59,253l.24.25.32.09c.93.25,1.39,1,1.25,1.51s-.71.74-1.45.67c-5.71-6.92-12.86-8.93-21.33-6a1.31,1.31,0,0,1-.89-1.29Z" transform="translate(0 -0.04)"/></g><g id="sign"><rect class="astronaut-12" x="264.78" y="218.92" width="4.8" height="129.42" rx="0.77" transform="translate(-51.08 508.42) rotate(-81.95)"/><circle class="astronaut-13" cx="374.55" cy="299.13" r="64.1"/></g><g id="money"><rect class="astronaut-14" x="242.56" y="255.89" width="21" height="54.38" transform="translate(-71.09 480.77) rotate(-79.59)"/><ellipse class="astronaut-15" cx="254.11" cy="282.27" rx="8.79" ry="5.99" transform="translate(-69.32 481.32) rotate(-79.62)"/><rect class="astronaut-16" x="245" y="256.33" width="18.26" height="51.68" transform="translate(-69.22 481.26) rotate(-79.62)"/><path class="astronaut-4" d="M254.79,281.63a3.83,3.83,0,0,1-3.24,6.95h0l-.3-.16a.58.58,0,0,1-.26-.78h0a.59.59,0,0,1,.79-.24,2.67,2.67,0,0,0,2.58-4.67l-.12-.07A.56.56,0,0,1,254,282h0a.58.58,0,0,1,.78-.26h0Z" transform="translate(0 -0.04)"/><path class="astronaut-4" d="M257.78,275.86a.58.58,0,0,1,.26.78h0a.57.57,0,0,1-.76.26h0a2.66,2.66,0,1,0-2.45,4.73h0a.59.59,0,0,1-.55,1h0a3.83,3.83,0,0,1,3.39-6.88l.15.08Z" transform="translate(0 -0.04)"/><rect class="astronaut-4" x="250.37" y="289.39" width="2.34" height="1.14" rx="0.53" transform="translate(-79.09 484.93) rotate(-79.59)"/><rect class="astronaut-4" x="253.99" y="274.6" width="2.35" height="1.14" rx="0.53" transform="translate(-61.49 476.53) rotate(-79.62)"/><rect class="astronaut-14" x="228.21" y="275.77" width="21.08" height="54.58" transform="translate(-101.84 121.78) rotate(-23.75)"/><ellipse class="astronaut-17" cx="238.16" cy="303.79" rx="8.81" ry="6" transform="translate(-102.75 122.67) rotate(-23.93)"/><rect class="astronaut-18" x="229.63" y="277.25" width="18.26" height="51.68" transform="translate(-101.85 121.78) rotate(-23.75)"/><path class="astronaut-4" d="M239.6,303.32a3.84,3.84,0,1,1-7.63.89h0a.57.57,0,0,1,.49-.64h0a.58.58,0,0,1,.65.5h0a2.67,2.67,0,0,0,5.31-.59v-.06a.58.58,0,0,1,.5-.65h0a.6.6,0,0,1,.65.52h0Z" transform="translate(0 -0.04)"/><path class="astronaut-4" d="M246,302.56a.59.59,0,0,1-.5.66h0a.58.58,0,0,1-.65-.5h0a2.66,2.66,0,0,0-5.29.62.57.57,0,0,1-.49.64h0a.58.58,0,0,1-.65-.5h0a3.83,3.83,0,0,1,7.61-.89h0Z" transform="translate(0 -0.04)"/><rect class="astronaut-4" x="231.04" y="305.15" width="2.35" height="1.14" rx="0.53" transform="translate(-103.47 119.37) rotate(-23.75)"/><rect class="astronaut-4" x="243.99" y="299.46" width="2.35" height="1.14" rx="0.53" transform="translate(-100.08 124.1) rotate(-23.75)"/><rect class="astronaut-14" x="237.81" y="275.1" width="21.08" height="54.58" transform="translate(-141.66 334.11) rotate(-55.26)"/><ellipse class="astronaut-19" cx="248.28" cy="302.45" rx="8.79" ry="5.99" transform="translate(-141.74 334.08) rotate(-55.26)"/><rect class="astronaut-20" x="239.22" y="276.55" width="18.26" height="51.68" transform="translate(-141.66 334.11) rotate(-55.26)"/><path class="astronaut-4" d="M249.18,302.16a3.83,3.83,0,0,1-6,4.74.58.58,0,1,1,.89-.75h0a2.67,2.67,0,0,0,4.25-3.22l-.06-.08a.59.59,0,0,1,.07-.82.59.59,0,0,1,.83.07h0Z" transform="translate(0 -0.04)"/><path class="astronaut-4" d="M254.29,298.14a.59.59,0,0,1-.92.73h0a2.66,2.66,0,0,0-4.19,3.29h0a.58.58,0,0,1-.89.75h0a3.84,3.84,0,0,1,5.92-4.88.76.76,0,0,0,.11.14Z" transform="translate(0 -0.04)"/><rect class="astronaut-4" x="242.97" y="307.49" width="2.35" height="1.14" rx="0.53" transform="translate(-148.13 333.09) rotate(-55.26)"/><rect class="astronaut-4" x="251.03" y="295.88" width="2.35" height="1.14" rx="0.53" transform="translate(-135.13 334.72) rotate(-55.26)"/><rect class="astronaut-14" x="240.95" y="262.17" width="21.08" height="54.58" transform="translate(-126.97 351.09) rotate(-58.27)"/><ellipse class="astronaut-21" cx="251.44" cy="289.5" rx="8.79" ry="5.99" transform="translate(-127.03 351.07) rotate(-58.27)"/><rect class="astronaut-22" x="243.96" y="265.41" width="18.29" height="51.77" transform="translate(-128 351.93) rotate(-58.06)"/><path class="astronaut-4" d="M252.3,289.18a3.83,3.83,0,0,1-5.7,5.12h0l-.07-.08a.58.58,0,0,1,.06-.82h0a.57.57,0,0,1,.82,0h0a2.67,2.67,0,0,0,4.15-3.35l-.14-.16a.59.59,0,0,1,0-.83.6.6,0,0,1,.83,0h0Z" transform="translate(0 -0.04)"/><path class="astronaut-4" d="M257.19,285a.58.58,0,0,1-.88.77h0a2.67,2.67,0,0,0-4,3.51.57.57,0,0,1,0,.8h0a.58.58,0,0,1-.82-.06h0a3.83,3.83,0,0,1,5.77-5Z" transform="translate(0 -0.04)"/><rect class="astronaut-4" x="246.41" y="294.75" width="2.35" height="1.14" rx="0.53" transform="translate(-133.81 350.55) rotate(-58.27)"/><rect class="astronaut-4" x="253.83" y="282.75" width="2.35" height="1.14" rx="0.53" transform="translate(-120.08 351.17) rotate(-58.27)"/><rect class="astronaut-14" x="215.32" y="269.62" width="54.58" height="21.08" transform="translate(-82.75 102.66) rotate(-20.5)"/><ellipse class="astronaut-23" cx="242.64" cy="280.23" rx="5.99" ry="8.79" transform="translate(-82.78 102.68) rotate(-20.5)"/><rect class="astronaut-24" x="216.77" y="271.02" width="51.68" height="18.26" transform="translate(-82.75 102.66) rotate(-20.5)"/><path class="astronaut-4" d="M242.84,279.36a3.83,3.83,0,0,1,.89,7.61h-.43a.59.59,0,0,1-.7-.44.57.57,0,0,1,.41-.68h.21a2.66,2.66,0,0,0-.32-5.32h0a.6.6,0,0,1-.59-.58.58.58,0,0,1,.52-.58Z" transform="translate(0 -0.04)"/><path class="astronaut-4" d="M242.45,272.87a.59.59,0,0,1,.62.55.58.58,0,0,1-.54.62h0a2.67,2.67,0,0,0,.31,5.32.58.58,0,1,1,.14,1.16h-.06a3.83,3.83,0,1,1-.63-7.64h.16Z" transform="translate(0 -0.04)"/><rect class="astronaut-4" x="244.3" y="285.67" width="1.14" height="2.35" rx="0.53" transform="translate(-84.95 103.88) rotate(-20.5)"/><rect class="astronaut-4" x="239.35" y="272.43" width="1.14" height="2.35" rx="0.53" transform="translate(-80.63 101.31) rotate(-20.5)"/><rect class="astronaut-14" x="221.2" y="272.08" width="21.08" height="54.58" transform="translate(-111.14 138.81) rotate(-27.17)"/><ellipse class="astronaut-25" cx="231.69" cy="299.42" rx="8.79" ry="5.99" transform="translate(-111.16 138.79) rotate(-27.17)"/><rect class="astronaut-26" x="222.63" y="273.53" width="18.26" height="51.68" transform="translate(-111.13 138.82) rotate(-27.17)"/><path class="astronaut-4" d="M232.62,299.57a3.84,3.84,0,0,1-7.54,1.41h0a.59.59,0,0,1,.47-.68.6.6,0,0,1,.68.48h0a2.67,2.67,0,0,0,5.25-.93.58.58,0,1,1,1.15-.21Z" transform="translate(0 -0.04)"/><path class="astronaut-4" d="M239,298.42a.58.58,0,1,1-1.15.21h0a2.66,2.66,0,1,0-5.24.94h0a.58.58,0,0,1-1.15.21,3.83,3.83,0,0,1,7.54-1.35Z" transform="translate(0 -0.04)"/><rect class="astronaut-4" x="224.19" y="301.82" width="2.35" height="1.14" rx="0.53" transform="translate(-113.22 136.23) rotate(-27.17)"/><rect class="astronaut-4" x="236.76" y="295.36" width="2.35" height="1.14" rx="0.53" transform="translate(-108.88 141.26) rotate(-27.17)"/></g></g><path class="astronaut-5" d="M409.28,265l-.72,4.09-5.92-1-1,5.41,5.92,1.05-.73,4.09-16.25-2.88.73-4.09,6.69,1.18,1-5.41-6.69-1.18.72-4.09Z" transform="translate(0 -0.04)"/><path class="astronaut-5" d="M394.47,283a3.13,3.13,0,0,0-2.07.38,2.31,2.31,0,0,0-1.08,1.7,2.59,2.59,0,0,0,.12,1.35,2,2,0,0,0,.81,1l-.62,3.49a5,5,0,0,1-2.62-2.64,7.21,7.21,0,0,1-.3-3.74,6.48,6.48,0,0,1,2.47-4.22,6.29,6.29,0,0,1,4.92-.92,6.2,6.2,0,0,1,5.16,7.09h0v.18a5.56,5.56,0,0,1-2.91,4.23,7.81,7.81,0,0,1-5.34.47Zm1.33,5a2.73,2.73,0,0,0,1.83-.35,2.14,2.14,0,0,0,1-1.46,2.24,2.24,0,0,0-.35-1.74,3.22,3.22,0,0,0-1.64-1.12Z" transform="translate(0 -0.04)"/><path class="astronaut-5" d="M403.83,295.8l-.66,3.74-16.25-2.88.66-3.73Z" transform="translate(0 -0.04)"/><path class="astronaut-5" d="M398.23,301.62l-.64,3.56-1.36-.24h0a3.64,3.64,0,0,1,1.15,3.45,4.44,4.44,0,0,1-2.7,3.57,4,4,0,0,1-1.06.38,5.91,5.91,0,0,1-1.18.18,10.86,10.86,0,0,1-2.48-.16,7.24,7.24,0,0,1-3.93-1.93,4.25,4.25,0,0,1-1.2-4,3.83,3.83,0,0,1,2.19-3h0l-5.23-.93.66-3.73Zm-3.66,5.45a2.68,2.68,0,0,0,0-.8,2.06,2.06,0,0,0-.39-.85,2.68,2.68,0,0,0-.86-.71,4.5,4.5,0,0,0-1.51-.51,5.16,5.16,0,0,0-2.56.08A2.12,2.12,0,0,0,388.1,307a2.49,2.49,0,0,0,.68.83,5.26,5.26,0,0,0,2.22.89,4.76,4.76,0,0,0,2.25-.1,2.12,2.12,0,0,0,.86-.55,1.88,1.88,0,0,0,.46-1Z" transform="translate(0 -0.04)"/><path class="astronaut-5" d="M395.66,316.09l-.66,3.74-11.81-2.1.66-3.73Zm.82,4,.66-3.73,3,.52-.66,3.73Z" transform="translate(0 -0.04)"/><path class="astronaut-5" d="M394.49,322.7l-.64,3.64-1.62-.29h0a3.91,3.91,0,0,1,1.19,1.8,4.47,4.47,0,0,1,.14,2.15,4.89,4.89,0,0,1-.86,2.2,2.89,2.89,0,0,1-1.41,1,3.83,3.83,0,0,1-1.57.27,9.07,9.07,0,0,1-1.47-.17L380.66,332l.66-3.73,5.72,1,1.21.23a3.26,3.26,0,0,0,1.08,0,1.42,1.42,0,0,0,.82-.4,2.23,2.23,0,0,0,.49-1.16,1.8,1.8,0,0,0-.48-1.68,3.36,3.36,0,0,0-1.69-.8L382,324.34l.66-3.74Z" transform="translate(0 -0.04)"/><path class="astronaut-5" d="M379.59,346.25a10.18,10.18,0,0,1-1.62-.43,5.31,5.31,0,0,1-1.72-1,4,4,0,0,1-1.15-2,7.27,7.27,0,0,1-.05-3.28,11.2,11.2,0,0,1,.5-1.89,6.18,6.18,0,0,1,.87-1.62,3.73,3.73,0,0,1,1.37-1.06,4.72,4.72,0,0,1,2-.38l-.65,3.75a1.43,1.43,0,0,0-1.15.46,3.2,3.2,0,0,0-.49,1.33,2.24,2.24,0,0,0,.05,1.12,1.24,1.24,0,0,0,.5.67,2.28,2.28,0,0,0,.85.43,8.52,8.52,0,0,0,1,.23l1.12.2h0a3.58,3.58,0,0,1-1.19-3.35,4.45,4.45,0,0,1,2.38-3.48,6.66,6.66,0,0,1,4.37-.5,6.42,6.42,0,0,1,3.85,2,4.66,4.66,0,0,1,1.06,4,3.32,3.32,0,0,1-2.37,2.74h0l1.48.26L390,348Zm5.44-2.68a4.17,4.17,0,0,0,2.16-.12,1.91,1.91,0,0,0,1.22-1.61,1.84,1.84,0,0,0-.61-1.87,4,4,0,0,0-2-.84,3.6,3.6,0,0,0-2,.18,2,2,0,0,0-.75.57,1.78,1.78,0,0,0-.43.92,2,2,0,0,0,.53,1.9,3.52,3.52,0,0,0,1.87.87Z" transform="translate(0 -0.04)"/><path class="astronaut-5" d="M377.17,253.62a2.87,2.87,0,0,0,2.08-.68,3.58,3.58,0,0,0,1-2.06,3.12,3.12,0,0,0-1-3.07,7.1,7.1,0,0,0-6.7-1.18,3.12,3.12,0,0,0-2,2.54,3,3,0,0,0,2.16,3.65l.29.06-.73,4.1a7,7,0,0,1-4.52-3,7.54,7.54,0,0,1-.86-5.34,7.33,7.33,0,0,1,3.49-5.26,9.69,9.69,0,0,1,12,2.13,7.38,7.38,0,0,1,1.45,6.14,8.19,8.19,0,0,1-2.45,4.57,6,6,0,0,1-5,1.53Z" transform="translate(0 -0.04)"/><path class="astronaut-5" d="M363.5,269.8l.64-3.63,1.61.29v0a4.36,4.36,0,0,1-1.34-3.83,3.85,3.85,0,0,1,2-3.08,6.43,6.43,0,0,1,3.83-.25l7.1,1.25-.66,3.74L369.81,263a2.39,2.39,0,0,0-1.72.2,1.76,1.76,0,0,0-.72,1.29,2.11,2.11,0,0,0,.3,1.45,2.74,2.74,0,0,0,.74.66,3.38,3.38,0,0,0,1.24.42l6.37,1.12-.67,3.73Z" transform="translate(0 -0.04)"/><path class="astronaut-5" d="M366.38,276.14a1.51,1.51,0,0,0-1.45.42,2.72,2.72,0,0,0-.66,1.4,2.9,2.9,0,0,0,.06,1.31,1,1,0,0,0,1.85.28,5.56,5.56,0,0,0,.56-1.15l.79-1.77a8.4,8.4,0,0,1,.86-1.69,3.57,3.57,0,0,1,1.26-1.12,3,3,0,0,1,1.94-.22,3.08,3.08,0,0,1,1.71.86,3.63,3.63,0,0,1,.86,1.48,6.29,6.29,0,0,1,.27,1.83,11,11,0,0,1-.15,1.81,10.45,10.45,0,0,1-.51,1.9,5.08,5.08,0,0,1-.89,1.59,3.25,3.25,0,0,1-1.37,1,3.9,3.9,0,0,1-2,.19l.64-3.59a1.11,1.11,0,0,0,1.13-.32,2.45,2.45,0,0,0,.51-1.18,4.25,4.25,0,0,0,.07-1.07.8.8,0,0,0-.67-.75.83.83,0,0,0-.74.35,4,4,0,0,0-.63,1c-.4.92-.77,1.86-1.12,2.8a4.85,4.85,0,0,1-.78,1.36,3.57,3.57,0,0,1-1,.73,3.38,3.38,0,0,1-1.91.24,3.61,3.61,0,0,1-3-2.37,8.11,8.11,0,0,1-.26-4,7.83,7.83,0,0,1,1.59-3.66,3.86,3.86,0,0,1,3.65-1.3Z" transform="translate(0 -0.04)"/><path class="astronaut-5" d="M368.84,294l.41-2.32-5.39-.95a1,1,0,0,0-1,.21,1.8,1.8,0,0,0-.42.93c0,.31-.09.64-.12,1l-2.85-.5c.06-.69.14-1.38.25-2.07a4.49,4.49,0,0,1,1.45-3,4.9,4.9,0,0,1,3.43-.24l5.27.93.33-1.9,2.49.44-.33,1.9L376,289l-.67,3.73-3.56-.63-.41,2.32Z" transform="translate(0 -0.04)"/><path class="astronaut-5" d="M365.15,294.79a6.46,6.46,0,0,1,4.19,2.48,6.3,6.3,0,0,1-1.53,8.69,6.46,6.46,0,0,1-4.79.88,6.33,6.33,0,0,1-4.14-2.46,6.22,6.22,0,0,1,1.52-8.66h0A6.34,6.34,0,0,1,365.15,294.79Zm-.66,3.73a5.45,5.45,0,0,0-1.14-.06,3.1,3.1,0,0,0-1.13.16,2.21,2.21,0,0,0-.91.59,1.8,1.8,0,0,0-.5,1,2.06,2.06,0,0,0,.11,1.18,2.32,2.32,0,0,0,.66.83,3.84,3.84,0,0,0,1,.58,7.17,7.17,0,0,0,1.1.3A5.51,5.51,0,0,0,366,303a1.92,1.92,0,0,0,1.39-1.63,1.88,1.88,0,0,0-.75-2A5.07,5.07,0,0,0,364.49,298.52Z" transform="translate(0 -0.04)"/><path class="astronaut-5" d="M368.56,310.07l-.66,3.72-1.63-.28h0a3.9,3.9,0,0,1,1.37,3.71,5,5,0,0,1-.77,2,2.91,2.91,0,0,1-1.75,1.11,4.36,4.36,0,0,1,1.27,4,4.59,4.59,0,0,1-.86,2.16,3,3,0,0,1-1.45,1,4.63,4.63,0,0,1-1.73.25,13.74,13.74,0,0,1-1.8-.19l-7.06-1.25.66-3.74,7,1.23c1.34.22,2.11-.22,2.32-1.31a1.6,1.6,0,0,0-.58-1.74,6.53,6.53,0,0,0-2.28-.72l-5.78-1,.66-3.73,6.72,1.19a3.38,3.38,0,0,0,1.73,0,1.3,1.3,0,0,0,.8-1.08,1.74,1.74,0,0,0-.42-1.68,4.83,4.83,0,0,0-2.44-.94l-5.76-1,.66-3.74Z" transform="translate(0 -0.04)"/><path class="astronaut-5" d="M357.37,333.34a3.19,3.19,0,0,0-2.07.38,2.37,2.37,0,0,0-1.07,1.71,2.55,2.55,0,0,0,.12,1.34,2,2,0,0,0,.8,1l-.61,3.49a4.78,4.78,0,0,1-2.62-2.64,7.11,7.11,0,0,1-.31-3.74,6.42,6.42,0,0,1,2.47-4.23,6.29,6.29,0,0,1,4.92-.91,6.1,6.1,0,0,1,4.17,2.62,6.18,6.18,0,0,1,1,4.65,5.59,5.59,0,0,1-2.92,4.23,7.78,7.78,0,0,1-5.33.46Zm1.33,5a2.67,2.67,0,0,0,1.83-.34,2.13,2.13,0,0,0,1-1.47,2.21,2.21,0,0,0-.34-1.73,3.3,3.3,0,0,0-1.64-1.13Z" transform="translate(0 -0.04)"/><path class="astronaut-5" d="M362.3,345.4l-.64,3.64-2.08-.37h0a3.51,3.51,0,0,1,1.69,3.84,4.31,4.31,0,0,1-.24.87l-3.51-.62a4.63,4.63,0,0,0,.47-1.4,2.69,2.69,0,0,0-.45-2.23,3,3,0,0,0-1.85-1.09l-5.86-1,.66-3.74Z" transform="translate(0 -0.04)"/></g><g id="astronaut-right-palm"><g id="astronaut-right-palm-2"><path class="astronaut-1" d="M101.89,268.25l-24.61,3.18a2.88,2.88,0,0,1-3.2-2.47l-5.2-40.2A15,15,0,0,1,81.81,212h.07a15.5,15.5,0,0,1,17.36,13.38h0l5.14,39.77A2.85,2.85,0,0,1,101.89,268.25Z" transform="translate(0 -0.04)"/><circle class="astronaut-7" cx="91.2" cy="282.28" r="16.86"/><path class="astronaut-5" d="M73.5,256.84a4,4,0,0,0,4.67,3l.4-.07.29-.29c5.67-5.57,11.85-6.49,18.9-2.87l.37.2.42-.05a3.94,3.94,0,0,0,3.53-4.26,3.85,3.85,0,0,0-4.31-3,22.09,22.09,0,0,0-21,3.17A3.9,3.9,0,0,0,73.5,256.84Zm3.94-1.66h.33L78,255a19.43,19.43,0,0,1,19.18-2.9l.3.09h.33c.91-.13,1.63.33,1.71.82a1.31,1.31,0,0,1-1,1.23c-7.74-3.85-14.84-2.77-21.13,3.17a1.24,1.24,0,0,1-1.31-.84c-.11-.52.43-1.19,1.33-1.32Z" transform="translate(0 -0.04)"/></g><g id="beer"><path class="astronaut-27" d="M107.13,302l.23-.06c2.69-.07,5.29,7.94,5.85,18s-1.22,18.32-3.92,18.48-5.28-7.9-5.85-18C102.91,310.63,104.57,302.52,107.13,302Z" transform="translate(0 -0.04)"/><path class="astronaut-28" d="M63.32,304.26l9.51-.5,27.92-1.49,6.39-.33c-2.55.58-4.21,8.69-3.67,18.46.54,10.07,3.15,18.11,5.84,18l-38.48,2c.57-1.78.2-4.65-1.2-8.65-3.8-10.92,1.9-9-.91-18.61-1.91-6.51-4.14-8.19-5.36-8.58Z" transform="translate(0 -0.04)"/><polyline class="astronaut-29" points="70.8 340.33 65.26 340.64 63.34 304.49"/><path class="astronaut-30" d="M62.37,304.41a1.71,1.71,0,0,1,1,.12c1.22.39,3.45,2.07,5.36,8.58,2.81,9.59-2.89,7.7.91,18.61,1.4,4,1.76,6.85,1.2,8.66-1,3.09-4.63,3-10.22-.12-4.67-2.58-6.46-2.78-7-2.41a21.36,21.36,0,0,0-1.14-2.65c-3.48-7-2.53-5.87-2.25-5.68,0-.13-.55-1-2.72-4.59-6.18-10.32,5,1,1.77-10s0,0,7.1-9.71C58,295.55,62.37,304.41,62.37,304.41Z" transform="translate(0 -0.04)"/><line class="astronaut-31" x1="98.96" y1="329.72" x2="77.48" y2="330.87"/><line class="astronaut-31" x1="98.48" y1="320.62" x2="77" y2="321.76"/><line class="astronaut-31" x1="98.01" y1="311.86" x2="76.53" y2="312.99"/><path class="astronaut-31" d="M80.23,294.76l12.18-.64a8,8,0,0,1,8.32,7.5,2.51,2.51,0,0,1,0,.67l-27.89,1.47a1.9,1.9,0,0,1-.09-.67,7.88,7.88,0,0,1,7.41-8.32h.07Z" transform="translate(0 -0.04)"/></g><g id="payment"><rect class="astronaut-32" x="34.86" y="277.69" width="68.26" height="41.13" rx="4.91" transform="translate(-27.31 7.62) rotate(-5.31)"/><rect class="astronaut-33" x="43.61" y="285.5" width="14.05" height="28.92" transform="translate(-27.55 5.93) rotate(-5.31)"/><rect class="astronaut-34" x="66.73" y="308.38" width="3.79" height="6.89" rx="1.32" transform="translate(-28.57 7.64) rotate(-5.31)"/><rect class="astronaut-34" x="65.85" y="298.99" width="3.79" height="6.89" rx="1.32" transform="translate(-27.7 7.52) rotate(-5.31)"/><rect class="astronaut-34" x="64.98" y="289.62" width="3.79" height="6.89" rx="1.32" transform="translate(-26.84 7.4) rotate(-5.31)"/><rect class="astronaut-34" x="64.14" y="280.56" width="3.79" height="6.89" rx="1.32" transform="translate(-26 7.29) rotate(-5.31)"/><rect class="astronaut-34" x="74.89" y="307.64" width="3.79" height="6.89" rx="1.32" transform="translate(-28.46 8.4) rotate(-5.31)"/><rect class="astronaut-34" x="74.02" y="298.26" width="3.79" height="6.89" rx="1.32" transform="translate(-27.6 8.28) rotate(-5.31)"/><rect class="astronaut-34" x="73.14" y="288.88" width="3.79" height="6.89" rx="1.32" transform="translate(-26.73 8.15) rotate(-5.31)"/><rect class="astronaut-34" x="72.31" y="279.8" width="3.79" height="6.89" rx="1.32" transform="matrix(1, -0.09, 0.09, 1, -25.9, 8.04)"/><rect class="astronaut-34" x="82.64" y="306.91" width="3.79" height="6.89" rx="1.32" transform="translate(-28.36 9.11) rotate(-5.31)"/><rect class="astronaut-34" x="81.77" y="297.55" width="3.79" height="6.89" rx="1.32" transform="translate(-27.5 8.99) rotate(-5.31)"/><rect class="astronaut-34" x="80.89" y="288.17" width="3.79" height="6.89" rx="1.32" transform="translate(-26.64 8.87) rotate(-5.31)"/><rect class="astronaut-34" x="80.05" y="279.05" width="3.79" height="6.89" rx="1.32" transform="translate(-25.8 8.75) rotate(-5.31)"/><rect class="astronaut-34" x="37.72" y="288.22" width="2.38" height="25.43" rx="0.72" transform="translate(-27.69 4.85) rotate(-5.31)"/><rect class="astronaut-35" x="90.33" y="283.26" width="5.5" height="10" rx="1.41" transform="translate(-26.28 9.81) rotate(-5.31)"/><rect class="astronaut-36" x="91.78" y="298.64" width="5.5" height="10" rx="1.41" transform="translate(-27.7 10.01) rotate(-5.31)"/><path class="astronaut-7" d="M.52,289.62c-.68,5.91,19.93,1.2,19.93,1.2l17.37-1.62L40,312.12l-17.4,1.64s-21.4,2.57-21.5-6.47Z" transform="translate(0 -0.04)"/><path class="astronaut-37" d="M93.24,289.34l1.08-1a.43.43,0,0,1,.61,0h0a.43.43,0,0,1,0,.6l-1.08,1a.41.41,0,0,1-.58,0h0A.44.44,0,0,1,93.24,289.34Z" transform="translate(0 -0.04)"/><path class="astronaut-37" d="M91.36,286.38h0a.42.42,0,0,1,.58-.11h0l2.9,2a.43.43,0,0,1,.12.6h0a.43.43,0,0,1-.6.12h0l-2.9-2a.43.43,0,0,1-.11-.6Z" transform="translate(0 -0.04)"/><path class="astronaut-38" d="M92.93,302.23h0a.45.45,0,0,1,.61,0l2.6,2.33a.45.45,0,0,1,0,.61h0a.43.43,0,0,1-.61,0h0L93,302.84a.43.43,0,0,1-.09-.6Z" transform="translate(0 -0.04)"/><path class="astronaut-38" d="M93.12,304.86l2.08-2.81a.43.43,0,0,1,.6-.09h0a.43.43,0,0,1,.09.6l-2.08,2.81a.43.43,0,0,1-.6.09h0A.43.43,0,0,1,93.12,304.86Z" transform="translate(0 -0.04)"/><path class="astronaut-12" d="M44.72,292.83" transform="translate(0 -0.04)"/><path class="astronaut-39" d="M7.67,310.53s2.78-1.29-.14-4.2c0,0,3.74-1.38.67-4.8,0,0,3.52-2.53.05-4.68,0,0,2.49-.37.34-1.52" transform="translate(0 -0.04)"/><path class="astronaut-39" d="M13.6,311s2.78-1.29-.14-4.21c0,0,3.71-1.37.67-4.79,0,0,3.52-2.53,0-4.68,0,0,2.5-.37.34-1.52" transform="translate(0 -0.04)"/><path class="astronaut-39" d="M18.76,311s2.78-1.29-.14-4.2c0,0,3.74-1.38.67-4.8,0,0,3.52-2.53,0-4.68,0,0,2.5-.37.34-1.52" transform="translate(0 -0.04)"/><path class="astronaut-39" d="M24.64,309.81s2.78-1.29-.14-4.2c0,0,3.74-1.39.67-4.8,0,0,3.52-2.53,0-4.69,0,0,2.49-.36.34-1.52" transform="translate(0 -0.04)"/><path class="astronaut-39" d="M29.23,308.76s2.78-1.28-.14-4.2c0,0,3.71-1.38.67-4.8,0,0,3.52-2.53,0-4.68,0,0,2.49-.36.34-1.52" transform="translate(0 -0.04)"/><path class="astronaut-5" d="M54.76,306.23a4.59,4.59,0,0,1,.49,1.78,3.21,3.21,0,0,1-2.68,3.66h-.46a3.42,3.42,0,0,1-3.89-2.88h0a2.16,2.16,0,0,1,0-.36,3.7,3.7,0,0,1,.15-1.65l.74.14a3.2,3.2,0,0,0-.15,1.41,2.55,2.55,0,0,0,2.66,2.44H52a2.48,2.48,0,0,0,2.53-2.43h0a3.38,3.38,0,0,0,0-.45,3.7,3.7,0,0,0-.41-1.41Z" transform="translate(0 -0.04)"/><path class="astronaut-5" d="M52.63,304.17l2.21.52.08.91-7-1.71-.1-1.06,6.61-3,.09,1-2.08.93Zm-.9-2.18-1.91.85c-.43.2-.82.33-1.21.47h0c.41.06.84.14,1.27.23l2,.49Z" transform="translate(0 -0.04)"/><path class="astronaut-5" d="M47.56,299.49a9.6,9.6,0,0,1-.3-1.67,2.81,2.81,0,0,1,.37-2,1.71,1.71,0,0,1,1.25-.66,1.82,1.82,0,0,1,1.86,1.12h0A1.72,1.72,0,0,1,52,295.15a10.53,10.53,0,0,0,1.82-.7l.09.91a9.07,9.07,0,0,1-1.59.63c-.94.29-1.24.69-1.2,1.49l.07.81,3-.27.08.88Zm3-1.17-.08-.9c-.09-1-.67-1.49-1.45-1.42s-1.2.76-1.13,1.69a3.64,3.64,0,0,0,.17.86Z" transform="translate(0 -0.04)"/><path class="astronaut-5" d="M47,294.05a13.26,13.26,0,0,1-.31-1.87,4,4,0,0,1,.59-2.84,3.15,3.15,0,0,1,2.36-1.19,3.63,3.63,0,0,1,2.75.74,4.28,4.28,0,0,1,1.27,2.93,14.44,14.44,0,0,1,.06,1.61Zm6-1.45a4.41,4.41,0,0,0,0-.89,2.64,2.64,0,0,0-2.58-2.7h0a2.75,2.75,0,0,0-.57.05,2.44,2.44,0,0,0-2.44,2.44h0a3.43,3.43,0,0,0,.07.56,4.29,4.29,0,0,0,.18,1Z" transform="translate(0 -0.04)"/></g></g><g id="astronaut-right-arm"><g id="astronaut-right-arm-2"><rect class="astronaut-40" x="60.2" y="168.9" width="60.12" height="30.53" rx="2.86" transform="translate(-111.09 223.11) rotate(-74.85)"/><path class="astronaut-7" d="M98.53,216a17.55,17.55,0,0,1-.6,4.5,16.55,16.55,0,0,1-4.62,7.77,16.85,16.85,0,1,1-8.59-28.74,9.12,9.12,0,0,1,1.36.28A16.87,16.87,0,0,1,98.53,216Z" transform="translate(0 -0.04)"/><path class="astronaut-5" d="M93.31,228.22a16.81,16.81,0,0,1-16.07,4.08,16.41,16.41,0,0,1-8-4.93l6.26-7,1-1.13c.16-.19.32-.34.48-.5l.28-.28a9.41,9.41,0,0,1,3.87-2.11,8.67,8.67,0,0,1,2.68-.36,9.75,9.75,0,0,1,6.54,2.48,9.25,9.25,0,0,1,1.83,2.21A10,10,0,0,1,93.31,228.22Z" transform="translate(0 -0.04)"/></g><circle class="astronaut-7" cx="100.6" cy="147.33" r="21.94"/><polyline class="astronaut-39" points="95.98 152.42 97.59 146.58 98.81 142.24 105.9 144.21"/><line class="astronaut-39" x1="101.15" y1="147.56" x2="97.6" y2="146.58"/></g><g id="astronaut-left-arm"><g id="astronaut-left-arm-2"><rect class="astronaut-41" x="212.55" y="155.61" width="30.53" height="60.12" rx="2.86" transform="translate(-52.2 96.37) rotate(-21.5)"/><path class="astronaut-7" d="M255.73,218.31v.12a15.9,15.9,0,0,1-2,4.86,16.82,16.82,0,0,1-18.25,7.84,15.94,15.94,0,0,1-4.12-1.57,16.71,16.71,0,0,1-8.92-16.16,15.83,15.83,0,0,1,.37-2.47,16.85,16.85,0,0,1,32.89,7.38h0Z" transform="translate(0 -0.04)"/><path class="astronaut-5" d="M253.73,223.3a16.83,16.83,0,0,1-18.22,7.83,15.94,15.94,0,0,1-4.12-1.57A9.8,9.8,0,0,1,238,212.88a9.46,9.46,0,0,1,4.47.89,10.19,10.19,0,0,1,2.53,1.62Z" transform="translate(0 -0.04)"/></g><circle class="astronaut-7" cx="213.26" cy="148.67" r="21.94"/><path class="astronaut-39" d="M213.57,153l-3.44-6.87c1.41-1.33,4.21-2.71,5.16-.43,1.1,2.66-2.25,3.41-3.09,3.7-.31.32,4.55-1.77,5.63-1.61C220.5,148.08,219.49,151.76,213.57,153Z" transform="translate(0 -0.04)"/></g></svg>