<svg id="alien-head" xmlns="http://www.w3.org/2000/svg" xmlns:xlink="http://www.w3.org/1999/xlink" viewBox="0 0 229.97 236.68"><defs><style>.alienHead-1{fill:#e7e2de;}.alienHead-2{fill:#2a2f42;}.alienHead-3{fill:#ccc0b0;}.alienHead-4{fill:#dad1c5;}.alienHead-5{fill:#b6aca3;}.alienHead-6{fill:#e7e0da;}.alienHead-7{fill:#d5ccc5;}.alienHead-8{fill:#cac1ba;}.alienHead-12,.alienHead-14,.alienHead-9{fill:none;}.alienHead-9{stroke:#7b6a58;stroke-miterlimit:10;stroke-width:4px;}.alienHead-10{fill:#f39200;}.alienHead-10,.alienHead-11,.alienHead-12,.alienHead-13,.alienHead-14,.alienHead-15,.alienHead-16{stroke:#fff;stroke-miterlimit:10;}.alienHead-10,.alienHead-11,.alienHead-12,.alienHead-14,.alienHead-15,.alienHead-16{stroke-width:0.75px;}.alienHead-11{fill:url(#headGradient);}.alienHead-13{fill:#fff;}.alienHead-14{stroke-linecap:round;}.alienHead-15{fill:url(#headGradient-2);}.alienHead-16{fill:url(#headGradient-3);}.alienHead-17{fill:#ffed00;}</style><linearGradient id="headGradient" x1="274.59" y1="-69.32" x2="280.19" y2="-24.04" gradientTransform="matrix(0.99, -0.12, -0.12, -0.99, -261.48, 49.93)" gradientUnits="userSpaceOnUse"><stop offset="0.2" stop-color="#f9b233"/><stop offset="0.29" stop-color="#f7ba4d"/><stop offset="0.54" stop-color="#f3d091"/><stop offset="0.75" stop-color="#f0e0c3"/><stop offset="0.91" stop-color="#eee9e1"/><stop offset="1" stop-color="#ededed"/></linearGradient><linearGradient id="headGradient-2" x1="454.43" y1="-82.36" x2="460.03" y2="-37.07" gradientTransform="matrix(0.98, -0.18, -0.18, -0.98, -265.66, 162.5)" xlink:href="#headGradient"/><linearGradient id="headGradient-3" x1="368.64" y1="-8.06" x2="374.24" y2="37.22" gradientTransform="matrix(0.99, -0.15, -0.15, -0.99, -228.34, 109.57)" xlink:href="#headGradient"/></defs><g id="head"><path class="alienHead-1" d="M70,217.88,64.71,229a25.11,25.11,0,0,1-15.28-1.87c-2.66-1.27-4.81-3.79-6.44-7.13l5.76-12.13a11.78,11.78,0,0,1,15.63-5.58,11.6,11.6,0,0,1,6,6.67A11.79,11.79,0,0,1,70,217.88Z" transform="translate(-2.77 0)"/><path class="alienHead-1" d="M147.6,169.14s-3.4,15.33-20.15,23.76a8.63,8.63,0,0,1-1,.48,52.31,52.31,0,0,1-17,4.53H109c-.1.12-.38.47-.85,1-.18.21-.42.46-.64.76-5.12,5.8-22.54,24.33-40.45,28.7l-1.28.29c-.31.06-.62.12-.89.15a.46.46,0,0,1-.23.06h0A25.11,25.11,0,0,1,49.4,227c-2.66-1.27-4.81-3.79-6.44-7.13h0a21.8,21.8,0,0,1-1.07-2.3A58.33,58.33,0,0,1,39,206.7a2.65,2.65,0,0,0-.13-.67,128.78,128.78,0,0,1-1.61-17.54c0-.79-.09-1.63-.1-2.45-.22-12,.68-21.87.68-21.87a55.32,55.32,0,0,1-6.59-17.46v-.08a43.37,43.37,0,0,1,2.55-26.32s18.15-84,92.49-54.48C126.3,65.83,195.62,96.46,147.6,169.14Z" transform="translate(-2.77 0)"/><ellipse class="alienHead-2" cx="58.44" cy="142.15" rx="18.26" ry="27.99" transform="translate(-54.61 35.09) rotate(-23.5)"/><path class="alienHead-3" d="M47.23,116.78c9.23-4,21.67,4.23,27.79,18.37,3.88,8.94,4.29,18.09,1.74,24.63,3.65-6.57,3.67-16.85-.67-26.87-6.13-14.14-18.57-22.36-27.8-18.37a14.15,14.15,0,0,0-7.35,8.2A13.37,13.37,0,0,1,47.23,116.78Z" transform="translate(-2.77 0)"/><ellipse class="alienHead-2" cx="115.83" cy="170.34" rx="27.9" ry="18.2" transform="translate(-44.87 38.08) rotate(-15.84)"/><path class="alienHead-3" d="M110.85,152.86c14.82-4.21,29.06.22,31.81,9.9a13.15,13.15,0,0,1-.52,8.31c2.16-3.65,2.94-7.55,1.9-11.23-2.75-9.67-17-14.1-31.81-9.89-10.67,3-18.7,9.7-21.36,16.8C94.41,160.78,101.66,155.46,110.85,152.86Z" transform="translate(-2.77 0)"/><ellipse class="alienHead-3" cx="53.7" cy="95.88" rx="5.83" ry="2.48" transform="translate(-54.87 66.16) rotate(-45.06)"/><ellipse class="alienHead-3" cx="58.13" cy="106.28" rx="4.22" ry="1.89" transform="translate(-60.93 72.36) rotate(-45.06)"/><ellipse class="alienHead-3" cx="153.22" cy="143.06" rx="5.83" ry="2.48" transform="matrix(0.1, -0.99, 0.99, 0.1, -7.39, 281.01)"/><ellipse class="alienHead-3" cx="143.33" cy="146.66" rx="4.22" ry="1.89" transform="translate(-19.86 274.41) rotate(-84.19)"/><path class="alienHead-4" d="M106.21,143.71l-16.36,6.16-6.16-16.35C89.1,141.7,96.72,144.84,106.21,143.71Z" transform="translate(-2.77 0)"/><path class="alienHead-5" d="M70.29,211.08c-7.76-.3-15.86-7.52-15.86-7.52L61.54,200l2.61,3.56,4.63-.13Z" transform="translate(-2.77 0)"/><ellipse class="alienHead-5" cx="69.58" cy="181.94" rx="3.61" ry="2.28" transform="translate(-118.53 122) rotate(-51.15)"/><ellipse class="alienHead-5" cx="78.33" cy="186.12" rx="3.61" ry="2.28" transform="translate(-122.71 224.43) rotate(-78.11)"/><ellipse class="alienHead-6" cx="56.75" cy="127.2" rx="2.48" ry="4.98" transform="translate(-35.34 20.32) rotate(-15.84)"/><ellipse class="alienHead-6" cx="129.74" cy="160.58" rx="4.98" ry="2.48" transform="translate(-55.91 64.8) rotate(-23.42)"/><path class="alienHead-7" d="M42,217.61c-3-6.82-4.24-18.29-4.76-31.56-.22-12,.65-21.89.65-21.89a55.72,55.72,0,0,1-6.55-17.46c.45,1.13,9,21.44,23.87,24.51,0,0-6.14,3.4-11.35.93C46.86,174.2,56.33,183.69,42,217.61Z" transform="translate(-2.77 0)"/><path class="alienHead-7" d="M65,228.89c7.48-1.13,17.92-6.15,28.2-15.11a102.48,102.48,0,0,0,15.94-15.84,43.85,43.85,0,0,0,18.34-5c-1.16.36-23,5.63-34.76-3.92,0,0,1.24,6.91,6.46,9.38C95.63,197.3,82.14,196.29,65,228.89Z" transform="translate(-2.77 0)"/><path class="alienHead-8" d="M64.71,229h0c-3.23,2.87-11.68,9.61-16.87,7.15-5.38-2.56-5.09-12.8-4.83-16.18,1.63,3.34,3.78,5.86,6.44,7.13A25.12,25.12,0,0,0,64.71,229Z" transform="translate(-2.77 0)"/></g><path id="alien-circle" class="alienHead-9" d="M6.8,29.15a12.23,12.23,0,0,1,3.87-4.31c8.09-5.49,38.92-17.71,126.5,22.38,101.34,46.38,98.63,84.68,89.39,89.05a13.47,13.47,0,0,0-2.69,1.71c-5.83,4.74-32.68,18.51-123.18-20.66C100.69,117.32-11.55,63.23,6.8,29.15Z" transform="translate(-2.77 0)"/><g id="beer3"><path class="alienHead-10" d="M32.5,82.32v.18c-.14,2-6.32,3.38-13.87,3S5,83.3,5.1,81.27s6.29-3.37,13.86-3C26.31,78.54,32.25,80.37,32.5,82.32Z" transform="translate(-2.77 0)"/><path class="alienHead-11" d="M34,49.4l-.32,7.14-.92,21-.22,4.8c-.25-2-6.19-3.78-13.54-4.1-7.57-.32-13.77,1-13.86,3.05l1.3-28.92c1.29.55,3.47.49,6.56-.26,8.44-2,6.61,2.07,14,.67,5-1,6.42-2.49,6.8-3.38Z" transform="translate(-2.77 0)"/><polyline class="alienHead-12" points="3.63 52.36 3.81 48.19 30.98 49.39"/><path class="alienHead-13" d="M33.91,48.67a1.25,1.25,0,0,1-.15.71c-.38.89-1.8,2.43-6.81,3.38-7.38,1.41-5.54-2.72-14-.67-3.09.75-5.27.82-6.56.26-2.24-.94-1.89-3.68.82-7.63,2.27-3.31,2.55-4.63,2.31-5.07A15.09,15.09,0,0,0,11.59,39c5.47-2.09,4.57-1.45,4.41-1.26.1,0,.8-.35,3.63-1.7,8.17-3.87-1.08,3.65,7.34,2s0,0,6.74,6C40.86,46.09,33.91,48.67,33.91,48.67Z" transform="translate(-2.77 0)"/><line class="alienHead-14" x1="9.51" y1="74.19" x2="10.23" y2="58.04"/><line class="alienHead-14" x1="16.36" y1="74.49" x2="17.07" y2="58.35"/><line class="alienHead-14" x1="22.95" y1="74.78" x2="23.66" y2="58.64"/><path class="alienHead-14" d="M39.85,62.73l-.42,9.16a6,6,0,0,1-6.21,5.69,2.07,2.07,0,0,1-.5-.06l.93-21a1.46,1.46,0,0,1,.51,0,5.93,5.93,0,0,1,5.69,6.21Z" transform="translate(-2.77 0)"/></g><g id="beer2"><path class="alienHead-10" d="M209,157.81V158c0,2-6.11,3.74-13.67,3.85s-13.72-1.44-13.76-3.47,6.09-3.74,13.67-3.86C202.56,154.4,208.6,155.88,209,157.81Z" transform="translate(-2.77 0)"/><path class="alienHead-15" d="M208.48,124.86l.11,7.15.3,21,.07,4.81c-.36-1.93-6.4-3.41-13.75-3.29-7.58.12-13.69,1.84-13.67,3.86l-.39-28.95c1.32.47,3.49.28,6.53-.65,8.31-2.54,6.72,1.68,14-.15,4.94-1.24,6.27-2.87,6.6-3.77Z" transform="translate(-2.77 0)"/><polyline class="alienHead-12" points="178.38 129.43 178.31 125.26 205.5 124.86"/><path class="alienHead-13" d="M208.4,124.14a1.27,1.27,0,0,1-.12.72c-.32.9-1.65,2.53-6.59,3.77-7.29,1.84-5.7-2.39-14,.15-3,.93-5.21,1.12-6.54.65-2.29-.82-2.1-3.57.38-7.67,2.07-3.43,2.27-4.77,2-5.19a16.29,16.29,0,0,0,2-.79c5.34-2.4,4.48-1.71,4.33-1.52.1,0,.78-.39,3.52-1.9,7.94-4.35-.86,3.7,7.45,1.61s0,0,7.09,5.61C215.18,121.16,208.4,124.14,208.4,124.14Z" transform="translate(-2.77 0)"/><line class="alienHead-14" x1="185.53" y1="150.88" x2="185.3" y2="134.72"/><line class="alienHead-14" x1="192.38" y1="150.78" x2="192.15" y2="134.62"/><line class="alienHead-14" x1="198.98" y1="150.69" x2="198.74" y2="134.53"/><path class="alienHead-14" d="M215.14,137.83l.13,9.16a6,6,0,0,1-5.87,6,2.09,2.09,0,0,1-.5,0l-.31-21a1.48,1.48,0,0,1,.51,0,5.92,5.92,0,0,1,4.24,1.67A6,6,0,0,1,215.14,137.83Z" transform="translate(-2.77 0)"/></g><g id="beer1"><path class="alienHead-10" d="M150.35,60.35v.18c-.09,2-6.23,3.53-13.79,3.39S122.9,62,123,60s6.21-3.52,13.79-3.38C144.07,56.72,150.06,58.41,150.35,60.35Z" transform="translate(-2.77 0)"/><path class="alienHead-16" d="M151,27.4l-.14,7.15-.41,21-.1,4.81c-.29-1.94-6.28-3.63-13.63-3.76C129.14,56.45,123,58,123,60l.6-28.94c1.3.52,3.48.4,6.55-.43,8.39-2.25,6.65,1.92,14,.33,5-1.07,6.36-2.64,6.72-3.54Z" transform="translate(-2.77 0)"/><polyline class="alienHead-12" points="120.75 31.03 120.83 26.86 148.03 27.4"/><path class="alienHead-13" d="M151,26.68a1.26,1.26,0,0,1-.13.71c-.36.9-1.75,2.47-6.73,3.54-7.34,1.59-5.6-2.58-14-.33-3.08.83-5.25,1-6.56.43-2.26-.89-2-3.64.65-7.65,2.18-3.36,2.43-4.69,2.18-5.12a15.11,15.11,0,0,0,2-.72c5.42-2.22,4.54-1.55,4.38-1.37.1,0,.78-.36,3.58-1.78,8.08-4.07-1,3.67,7.39,1.87s0,0,6.89,5.85C157.83,23.93,151,26.68,151,26.68Z" transform="translate(-2.77 0)"/><line class="alienHead-14" x1="127.17" y1="52.72" x2="127.49" y2="36.56"/><line class="alienHead-14" x1="134.02" y1="52.85" x2="134.34" y2="36.69"/><line class="alienHead-14" x1="140.61" y1="52.98" x2="140.93" y2="36.82"/><path class="alienHead-14" d="M157.22,40.59,157,49.75A6,6,0,0,1,151,55.59a1.67,1.67,0,0,1-.5-.05l.42-21a1.46,1.46,0,0,1,.51,0,6,6,0,0,1,4.18,1.81A6.06,6.06,0,0,1,157.22,40.59Z" transform="translate(-2.77 0)"/></g><polygon id="star3" class="alienHead-17" points="52.16 40.67 47.28 25.14 31 24.98 44.27 15.54 39.4 0 52.48 9.7 65.75 0.26 60.55 15.7 73.64 25.4 57.35 25.24 52.16 40.67"/><polygon id="star2" class="alienHead-17" points="186.38 105.24 194.38 91.05 183.34 79.07 199.31 82.28 207.29 68.09 209.18 84.27 225.13 87.48 210.34 94.27 212.22 110.44 201.19 98.46 186.38 105.24"/><polygon id="star1" class="alienHead-17" points="94.83 138.46 94.44 122.18 78.83 117.52 94.2 112.12 93.81 95.84 103.69 108.78 119.06 103.38 109.81 116.78 119.69 129.72 104.08 125.06 94.83 138.46"/></svg>