<svg id="planeSVGt" xmlns="http://www.w3.org/2000/svg" xmlns:xlink="http://www.w3.org/1999/xlink" viewBox="0 0 256.34 256.34"><defs><style>.planeSVGt-1{fill:url(#radial-gradient);}.planeSVGt-2{fill:url(#planetGradient);}.planeSVGt-3{fill:url(#planetGradient-2);}.planeSVGt-4{fill:url(#planetGradient-3);}.planeSVGt-5{fill:url(#planetGradient-4);}.planetSVG-6{fill:url(#planetGradient-5);}.planeSVGt-7{fill:url(#planetGradient-6);}.planeSVGt-8{fill:url(#planetGradient-7);}.planeSVGt-9{fill:url(#planetGradient-8);}.planeSVGt-10{fill:url(#planetGradient-9);}.planeSVGt-11{fill:url(#planetGradient-10);}.planeSVGt-12{fill:url(#planetGradient-11);}.planeSVGt-13{fill:url(#planetGradient-12);}.planeSVGt-14{fill:url(#planetGradient-13);}.planeSVGt-15{fill:url(#planetGradient-14);}.planeSVGt-16{fill:url(#planetGradient-15);}.planeSVGt-17{fill:url(#planetGradient-16);}.planeSVGt-18{fill:url(#planetGradient-17);}.planeSVGt-19{fill:url(#planetGradient-18);}.planeSVGt-20{fill:url(#planetGradient-19);}.planeSVGt-21{fill:url(#planetGradient-20);}.planeSVGt-22{fill:url(#planetGradient-21);}.planeSVGt-23{fill:url(#planetGradient-22);}.planeSVGt-24{fill:url(#planetGradient-23);}.planeSVGt-25{fill:url(#planetGradient-24);}.planeSVGt-26{fill:url(#planetGradient-25);}.planeSVGt-27{fill:url(#planetGradient-26);}.planeSVGt-28{fill:url(#planetGradient-27);}.planeSVGt-29{fill:url(#planetGradient-28);}.planeSVGt-30{fill:url(#planetGradient-29);}.planeSVGt-31{fill:url(#planetGradient-30);}.planeSVGt-32{fill:url(#planetGradient-31);}.planeSVGt-33{fill:url(#planetGradient-32);}.planeSVGt-34{fill:url(#planetGradient-33);}.planeSVGt-35{fill:url(#planetGradient-34);}.planeSVGt-36{fill:url(#planetGradient-35);}.planeSVGt-37{fill:url(#planetGradient-36);}</style><radialGradient id="radial-gradient" cx="128.17" cy="128.17" fx="256.33704584362096" r="128.17" gradientUnits="userSpaceOnUse"><stop offset="0.04" stop-color="#7c7c7c"/><stop offset="0.48" stop-color="#7a7a7a"/><stop offset="0.63" stop-color="#747473"/><stop offset="0.74" stop-color="#686868"/><stop offset="0.83" stop-color="#575757"/><stop offset="0.91" stop-color="#424241"/><stop offset="0.98" stop-color="#282826"/><stop offset="1" stop-color="#1d1d1b"/></radialGradient><linearGradient id="planetGradient" x1="239.76" y1="156.39" x2="310.88" y2="156.39" gradientTransform="matrix(-0.66, 0.39, -0.56, -0.86, 411.26, 93.82)" gradientUnits="userSpaceOnUse"><stop offset="0.13" stop-color="#7c7c7c"/><stop offset="0.26" stop-color="#747474"/><stop offset="0.45" stop-color="#5d5d5d"/><stop offset="0.69" stop-color="#393939"/><stop offset="0.97" stop-color="#060606"/><stop offset="1"/></linearGradient><linearGradient id="planetGradient-2" x1="364.79" y1="178.09" x2="419.23" y2="178.09" gradientTransform="matrix(-0.25, -0.77, 0.51, -1.08, 118.01, 751.11)" xlink:href="#planetGradient"/><linearGradient id="planetGradient-3" x1="541.65" y1="167.36" x2="596.09" y2="167.36" gradientTransform="matrix(-0.78, 0.31, -1.01, -0.67, 857.21, 180.87)" xlink:href="#planetGradient"/><linearGradient id="planetGradient-4" x1="-142.62" y1="363.18" x2="-88.18" y2="363.18" gradientTransform="matrix(-0.2, -0.52, 0.43, -0.68, -115.29, 353.74)" xlink:href="#planetGradient"/><linearGradient id="planetGradient-5" x1="791.12" y1="422.04" x2="845.56" y2="422.04" gradientTransform="matrix(0.2, 0.52, -0.43, 0.68, 298.87, -572.7)" xlink:href="#planetGradient"/><linearGradient id="planetGradient-6" x1="214.65" y1="91.54" x2="292.76" y2="91.54" gradientTransform="matrix(-0.07, 0.65, -0.89, -0.34, 289.14, -69.72)" xlink:href="#planetGradient"/><linearGradient id="planetGradient-7" x1="299.55" y1="221.51" x2="428.79" y2="221.51" gradientTransform="matrix(0.61, -0.03, 0.69, 0.57, -287.31, 108.7)" xlink:href="#planetGradient"/><linearGradient id="planetGradient-8" x1="661.67" y1="183.02" x2="790.91" y2="183.02" gradientTransform="matrix(-0.12, 0.6, -0.73, 0.51, 505.6, -343.09)" xlink:href="#planetGradient"/><linearGradient id="planetGradient-9" x1="45.29" y1="90.11" x2="50.71" y2="90.11" gradientTransform="matrix(1, 0, 0, 1, 0, 0)" xlink:href="#planetGradient"/><linearGradient id="planetGradient-10" x1="59.49" y1="95.47" x2="63.22" y2="95.47" gradientTransform="matrix(1, 0, 0, 1, 0, 0)" xlink:href="#planetGradient"/><linearGradient id="planetGradient-11" x1="70.98" y1="104.24" x2="72.84" y2="104.24" gradientTransform="matrix(1, 0, 0, 1, 0, 0)" xlink:href="#planetGradient"/><linearGradient id="planetGradient-12" x1="53.54" y1="111.56" x2="55.23" y2="111.56" gradientTransform="matrix(1, 0, 0, 1, 0, 0)" xlink:href="#planetGradient"/><linearGradient id="planetGradient-13" x1="58.73" y1="124.27" x2="60.42" y2="124.27" gradientTransform="matrix(1, 0, 0, 1, 0, 0)" xlink:href="#planetGradient"/><linearGradient id="planetGradient-14" x1="215.83" y1="82.62" x2="217.53" y2="82.62" gradientTransform="matrix(1, 0, 0, 1, 0, 0)" xlink:href="#planetGradient"/><linearGradient id="planetGradient-15" x1="54.38" y1="71.81" x2="56.24" y2="71.81" gradientTransform="matrix(1, 0, 0, 1, 0, 0)" xlink:href="#planetGradient"/><linearGradient id="planetGradient-16" x1="212.95" y1="70.88" x2="218.37" y2="70.88" gradientTransform="matrix(1, 0, 0, 1, 0, 0)" xlink:href="#planetGradient"/><linearGradient id="planetGradient-17" x1="70.9" y1="78.04" x2="74.62" y2="78.04" gradientTransform="matrix(1, 0, 0, 1, 0, 0)" xlink:href="#planetGradient"/><linearGradient id="planetGradient-18" x1="22.47" y1="175.31" x2="26.2" y2="175.31" gradientTransform="matrix(1, 0, 0, 1, 0, 0)" xlink:href="#planetGradient"/><linearGradient id="planetGradient-19" x1="47.32" y1="187.81" x2="49.02" y2="187.81" gradientTransform="matrix(1, 0, 0, 1, 0, 0)" xlink:href="#planetGradient"/><linearGradient id="planetGradient-20" x1="49.79" y1="185.09" x2="51.49" y2="185.09" gradientTransform="matrix(1, 0, 0, 1, 0, 0)" xlink:href="#planetGradient"/><linearGradient id="planetGradient-21" x1="77.83" y1="219.01" x2="79.53" y2="219.01" gradientTransform="matrix(1, 0, 0, 1, 0, 0)" xlink:href="#planetGradient"/><linearGradient id="planetGradient-22" x1="131.78" y1="26.54" x2="133.65" y2="26.54" gradientTransform="matrix(1, 0, 0, 1, 0, 0)" xlink:href="#planetGradient"/><linearGradient id="planetGradient-23" x1="129.41" y1="28.41" x2="131.28" y2="28.41" gradientTransform="matrix(1, 0, 0, 1, 0, 0)" xlink:href="#planetGradient"/><linearGradient id="planetGradient-24" x1="137.06" y1="10.67" x2="138.92" y2="10.67" gradientTransform="matrix(1, 0, 0, 1, 0, 0)" xlink:href="#planetGradient"/><linearGradient id="planetGradient-25" x1="120.66" y1="58.18" x2="122.52" y2="58.18" gradientTransform="matrix(1, 0, 0, 1, 0, 0)" xlink:href="#planetGradient"/><linearGradient id="planetGradient-26" x1="227.15" y1="179.05" x2="230.88" y2="179.05" gradientTransform="matrix(1, 0, 0, 1, 0, 0)" xlink:href="#planetGradient"/><linearGradient id="planetGradient-27" x1="242.43" y1="159.98" x2="246.15" y2="159.98" gradientTransform="matrix(1, 0, 0, 1, 0, 0)" xlink:href="#planetGradient"/><linearGradient id="planetGradient-28" x1="167.66" y1="232.19" x2="171.39" y2="232.19" gradientTransform="matrix(1, 0, 0, 1, 0, 0)" xlink:href="#planetGradient"/><linearGradient id="planetGradient-29" x1="353.37" y1="215.07" x2="358.16" y2="215.07" gradientTransform="matrix(0.42, 0.26, 3.36, -5.39, -596.03, 1296.1)" gradientUnits="userSpaceOnUse"><stop offset="0"/><stop offset="0.03" stop-color="#060606"/><stop offset="0.31" stop-color="#393939"/><stop offset="0.55" stop-color="#5d5d5d"/><stop offset="0.74" stop-color="#747474"/><stop offset="0.87" stop-color="#7c7c7c"/></linearGradient><linearGradient id="planetGradient-30" x1="-125.92" y1="212.82" x2="-121.13" y2="212.82" gradientTransform="matrix(-0.47, -0.18, -2.33, 5.91, 505.61, -1162.93)" xlink:href="#planetGradient-29"/><linearGradient id="planetGradient-31" x1="-56.67" y1="201.35" x2="-51.86" y2="201.35" gradientTransform="matrix(-0.46, 0.2, 2.51, 5.83, -472.91, -967.26)" xlink:href="#planetGradient-29"/><linearGradient id="planetGradient-32" x1="67.3" y1="232.7" x2="72.09" y2="232.7" gradientTransform="matrix(0.22, -0.45, -5.72, -2.75, 1536.84, 727.7)" xlink:href="#planetGradient-29"/><linearGradient id="planetGradient-33" x1="169.62" y1="226.39" x2="171.32" y2="226.39" gradientTransform="matrix(1, 0, 0, 1, 0, 0)" xlink:href="#planetGradient"/><linearGradient id="planetGradient-34" x1="188.98" y1="230.32" x2="190.68" y2="230.32" gradientTransform="matrix(1, 0, 0, 1, 0, 0)" xlink:href="#planetGradient"/><linearGradient id="planetGradient-35" x1="100.51" y1="250.41" x2="102.21" y2="250.41" gradientTransform="matrix(1, 0, 0, 1, 0, 0)" xlink:href="#planetGradient"/><linearGradient id="planetGradient-36" x1="236.77" y1="174.03" x2="238.47" y2="174.03" gradientTransform="matrix(1, 0, 0, 1, 0, 0)" xlink:href="#planetGradient"/></defs><circle class="planeSVGt-1" cx="128.17" cy="128.17" r="128.17"/><ellipse class="planeSVGt-2" cx="144.55" cy="65.34" rx="31.04" ry="12.46" transform="translate(-57.72 6.87) rotate(-16.86)"/><ellipse class="planeSVGt-3" cx="110.23" cy="255.05" rx="10.77" ry="27.24" transform="translate(-212.53 210.8) rotate(-65.31)"/><ellipse class="planeSVGt-4" cx="245.57" cy="244.64" rx="26.71" ry="13.67" transform="translate(-145.47 186.82) rotate(-41.59)"/><ellipse class="planeSVGt-5" cx="65.39" cy="170.5" rx="8.72" ry="17.81" transform="translate(-76.29 -22.27) rotate(-10.99)"/><ellipse class="planeSVGt-6" cx="279.51" cy="135.77" rx="8.72" ry="17.81" transform="translate(-73.16 54.4) rotate(-17.86)"/><path class="planeSVGt-7" d="M190.9,64.55c6-10.61,33.33-21.71,26.34-17.66-7.69,4.47-11.55,7.09-17.52,17.69s-25.58,14.08-33.62,13.3S184.93,75.16,190.9,64.55Z" transform="translate(-44.99 -37.86)"/><path class="planeSVGt-8" d="M111.35,205.63c-1.16,4.26-8.65,16.9-19.58,14.07s-25.24,22.69-24.09,18.42,15.31-25.81,26.24-23S112.5,201.36,111.35,205.63Z" transform="translate(-44.99 -37.86)"/><path class="planeSVGt-9" d="M291.77,212.9c-3.83-2.22-14.09-12.74-8.52-22.56s-15.37-30.26-11.55-28,21,21.47,15.4,31.3S295.59,215.12,291.77,212.9Z" transform="translate(-44.99 -37.86)"/><circle class="planeSVGt-10" cx="48.25" cy="90.11" r="2.72"/><circle class="planeSVGt-11" cx="61.52" cy="95.47" r="1.87"/><circle class="planeSVGt-12" cx="71.99" cy="104.24" r="0.94"/><circle class="planeSVGt-13" cx="54.46" cy="111.56" r="0.85"/><circle class="planeSVGt-14" cx="59.65" cy="124.27" r="0.85"/><circle class="planeSVGt-15" cx="216.76" cy="82.62" r="0.85"/><circle class="planeSVGt-16" cx="55.39" cy="71.81" r="0.94"/><circle class="planeSVGt-17" cx="215.91" cy="70.88" r="2.72"/><circle class="planeSVGt-18" cx="72.93" cy="78.04" r="1.87"/><circle class="planeSVGt-19" cx="24.5" cy="175.31" r="1.87"/><circle class="planeSVGt-20" cx="48.25" cy="187.81" r="0.85"/><circle class="planeSVGt-21" cx="50.71" cy="185.09" r="0.85"/><circle class="planeSVGt-22" cx="78.76" cy="219.01" r="0.85"/><circle class="planeSVGt-23" cx="132.8" cy="26.54" r="0.94"/><circle class="planeSVGt-24" cx="130.43" cy="28.41" r="0.94"/><circle class="planeSVGt-25" cx="138.08" cy="10.67" r="0.94"/><circle class="planeSVGt-26" cx="121.67" cy="58.18" r="0.94"/><circle class="planeSVGt-27" cx="229.18" cy="179.05" r="1.87"/><circle class="planeSVGt-28" cx="244.46" cy="159.98" r="1.87"/><circle class="planeSVGt-29" cx="169.69" cy="232.19" r="1.87"/><path class="planeSVGt-30" d="M278.27,231.72a7.64,7.64,0,0,0,.83-5.85c-.2-.12,0,2.86-1.56,5.4s-4.35,3.65-4.16,3.77A7.59,7.59,0,0,0,278.27,231.72Z" transform="translate(-44.99 -37.86)"/><path class="planeSVGt-31" d="M65.15,116.08a7.57,7.57,0,0,0,.23,5.9c.22.09-.54-2.81.56-5.59s3.63-4.37,3.41-4.46A7.58,7.58,0,0,0,65.15,116.08Z" transform="translate(-44.99 -37.86)"/><path class="planeSVGt-32" d="M56,197.07a7.59,7.59,0,0,0,4.32,4c.22-.09-2.36-1.61-3.54-4.36s-.51-5.66-.72-5.57A7.59,7.59,0,0,0,56,197.07Z" transform="translate(-44.99 -37.86)"/><path class="planeSVGt-33" d="M221,54.52a7.6,7.6,0,0,0-5.91-.19c-.1.21,2.85-.34,5.54,1s4.1,3.93,4.2,3.72A7.57,7.57,0,0,0,221,54.52Z" transform="translate(-44.99 -37.86)"/><circle class="planeSVGt-34" cx="170.54" cy="226.39" r="0.85"/><circle class="planeSVGt-35" cx="189.91" cy="230.32" r="0.85"/><circle class="planeSVGt-36" cx="101.44" cy="250.41" r="0.85"/><circle class="planeSVGt-37" cx="237.7" cy="174.03" r="0.85"/></svg>